M48
; DRILL file {KiCad (6.0.0)} date Sun Jan  1 12:45:45 2023
; FORMAT={-:-/ absolute / metric / decimal}
; #@! TF.CreationDate,2023-01-01T12:45:45-08:00
; #@! TF.GenerationSoftware,Kicad,Pcbnew,(6.0.0)
; #@! TF.FileFunction,NonPlated,1,2,NPTH
FMAT,2
METRIC
; #@! TA.AperFunction,NonPlated,NPTH,ComponentDrill
T1C1.702
; #@! TA.AperFunction,NonPlated,NPTH,ComponentDrill
T2C3.000
; #@! TA.AperFunction,NonPlated,NPTH,ComponentDrill
T3C3.988
%
G90
G05
T1
X44.92Y-50.0
X44.92Y-69.05
X44.92Y-88.1
X55.08Y-50.0
X55.08Y-69.05
X55.08Y-88.1
X63.97Y-50.0
X63.97Y-69.05
X63.97Y-88.1
X74.13Y-50.0
X74.13Y-69.05
X74.13Y-88.1
X83.02Y-50.0
X83.02Y-69.05
X83.02Y-88.1
X93.18Y-50.0
X93.18Y-69.05
X93.18Y-88.1
T2
X46.19Y-47.46
X46.19Y-66.51
X46.19Y-85.56
X52.54Y-44.92
X52.54Y-63.97
X52.54Y-83.02
X65.24Y-47.46
X65.24Y-66.51
X65.24Y-85.56
X71.59Y-44.92
X71.59Y-63.97
X71.59Y-83.02
X84.29Y-47.46
X84.29Y-66.51
X84.29Y-85.56
X90.64Y-44.92
X90.64Y-63.97
X90.64Y-83.02
T3
X50.0Y-50.0
X50.0Y-69.05
X50.0Y-88.1
X69.05Y-50.0
X69.05Y-69.05
X69.05Y-88.1
X88.1Y-50.0
X88.1Y-69.05
X88.1Y-88.1
T0
M30
