%TF.GenerationSoftware,KiCad,Pcbnew,(6.0.0)*%
%TF.CreationDate,2023-01-21T20:16:48-08:00*%
%TF.ProjectId,keyboard_eval,6b657962-6f61-4726-945f-6576616c2e6b,rev?*%
%TF.SameCoordinates,Original*%
%TF.FileFunction,Legend,Bot*%
%TF.FilePolarity,Positive*%
%FSLAX46Y46*%
G04 Gerber Fmt 4.6, Leading zero omitted, Abs format (unit mm)*
G04 Created by KiCad (PCBNEW (6.0.0)) date 2023-01-21 20:16:48*
%MOMM*%
%LPD*%
G01*
G04 APERTURE LIST*
G04 Aperture macros list*
%AMRoundRect*
0 Rectangle with rounded corners*
0 $1 Rounding radius*
0 $2 $3 $4 $5 $6 $7 $8 $9 X,Y pos of 4 corners*
0 Add a 4 corners polygon primitive as box body*
4,1,4,$2,$3,$4,$5,$6,$7,$8,$9,$2,$3,0*
0 Add four circle primitives for the rounded corners*
1,1,$1+$1,$2,$3*
1,1,$1+$1,$4,$5*
1,1,$1+$1,$6,$7*
1,1,$1+$1,$8,$9*
0 Add four rect primitives between the rounded corners*
20,1,$1+$1,$2,$3,$4,$5,0*
20,1,$1+$1,$4,$5,$6,$7,0*
20,1,$1+$1,$6,$7,$8,$9,0*
20,1,$1+$1,$8,$9,$2,$3,0*%
%AMOutline5P*
0 Free polygon, 5 corners , with rotation*
0 The origin of the aperture is its center*
0 number of corners: always 5*
0 $1 to $10 corner X, Y*
0 $11 Rotation angle, in degrees counterclockwise*
0 create outline with 5 corners*
4,1,5,$1,$2,$3,$4,$5,$6,$7,$8,$9,$10,$1,$2,$11*%
%AMOutline6P*
0 Free polygon, 6 corners , with rotation*
0 The origin of the aperture is its center*
0 number of corners: always 6*
0 $1 to $12 corner X, Y*
0 $13 Rotation angle, in degrees counterclockwise*
0 create outline with 6 corners*
4,1,6,$1,$2,$3,$4,$5,$6,$7,$8,$9,$10,$11,$12,$1,$2,$13*%
%AMOutline7P*
0 Free polygon, 7 corners , with rotation*
0 The origin of the aperture is its center*
0 number of corners: always 7*
0 $1 to $14 corner X, Y*
0 $15 Rotation angle, in degrees counterclockwise*
0 create outline with 7 corners*
4,1,7,$1,$2,$3,$4,$5,$6,$7,$8,$9,$10,$11,$12,$13,$14,$1,$2,$15*%
%AMOutline8P*
0 Free polygon, 8 corners , with rotation*
0 The origin of the aperture is its center*
0 number of corners: always 8*
0 $1 to $16 corner X, Y*
0 $17 Rotation angle, in degrees counterclockwise*
0 create outline with 8 corners*
4,1,8,$1,$2,$3,$4,$5,$6,$7,$8,$9,$10,$11,$12,$13,$14,$15,$16,$1,$2,$17*%
%AMFreePoly0*
4,1,22,0.550000,-0.750000,0.000000,-0.750000,0.000000,-0.745033,-0.079941,-0.743568,-0.215256,-0.701293,-0.333266,-0.622738,-0.424486,-0.514219,-0.481581,-0.384460,-0.499164,-0.250000,-0.500000,-0.250000,-0.500000,0.250000,-0.499164,0.250000,-0.499963,0.256109,-0.478152,0.396186,-0.417904,0.524511,-0.324060,0.630769,-0.204165,0.706417,-0.067858,0.745374,0.000000,0.744959,0.000000,0.750000,
0.550000,0.750000,0.550000,-0.750000,0.550000,-0.750000,$1*%
%AMFreePoly1*
4,1,20,0.000000,0.744959,0.073905,0.744508,0.209726,0.703889,0.328688,0.626782,0.421226,0.519385,0.479903,0.390333,0.500000,0.250000,0.500000,-0.250000,0.499851,-0.262216,0.476331,-0.402017,0.414519,-0.529596,0.319384,-0.634700,0.198574,-0.708877,0.061801,-0.746166,0.000000,-0.745033,0.000000,-0.750000,-0.550000,-0.750000,-0.550000,0.750000,0.000000,0.750000,0.000000,0.744959,
0.000000,0.744959,$1*%
%AMFreePoly2*
4,1,22,0.500000,-0.750000,0.000000,-0.750000,0.000000,-0.745033,-0.079941,-0.743568,-0.215256,-0.701293,-0.333266,-0.622738,-0.424486,-0.514219,-0.481581,-0.384460,-0.499164,-0.250000,-0.500000,-0.250000,-0.500000,0.250000,-0.499164,0.250000,-0.499963,0.256109,-0.478152,0.396186,-0.417904,0.524511,-0.324060,0.630769,-0.204165,0.706417,-0.067858,0.745374,0.000000,0.744959,0.000000,0.750000,
0.500000,0.750000,0.500000,-0.750000,0.500000,-0.750000,$1*%
%AMFreePoly3*
4,1,20,0.000000,0.744959,0.073905,0.744508,0.209726,0.703889,0.328688,0.626782,0.421226,0.519385,0.479903,0.390333,0.500000,0.250000,0.500000,-0.250000,0.499851,-0.262216,0.476331,-0.402017,0.414519,-0.529596,0.319384,-0.634700,0.198574,-0.708877,0.061801,-0.746166,0.000000,-0.745033,0.000000,-0.750000,-0.500000,-0.750000,-0.500000,0.750000,0.000000,0.750000,0.000000,0.744959,
0.000000,0.744959,$1*%
G04 Aperture macros list end*
%ADD10C,0.150000*%
%ADD11C,0.254000*%
%ADD12C,0.100000*%
%ADD13C,0.120000*%
%ADD14C,0.200000*%
%ADD15C,0.250000*%
%ADD16C,3.000000*%
%ADD17C,1.701800*%
%ADD18C,3.987800*%
%ADD19RoundRect,0.200000X-1.075000X-1.050000X1.075000X-1.050000X1.075000X1.050000X-1.075000X1.050000X0*%
%ADD20C,2.600000*%
%ADD21C,3.800000*%
%ADD22R,1.700000X1.700000*%
%ADD23O,1.700000X1.700000*%
%ADD24R,2.000000X2.000000*%
%ADD25C,2.000000*%
%ADD26C,3.200000*%
%ADD27R,1.200000X0.900000*%
%ADD28Outline5P,-0.750000X0.180000X-0.480000X0.450000X0.750000X0.450000X0.750000X-0.450000X-0.750000X-0.450000X180.000000*%
%ADD29R,1.500000X0.900000*%
%ADD30RoundRect,0.237500X-0.300000X-0.237500X0.300000X-0.237500X0.300000X0.237500X-0.300000X0.237500X0*%
%ADD31R,1.500000X1.000000*%
%ADD32R,1.000000X1.500000*%
%ADD33RoundRect,0.237500X0.250000X0.237500X-0.250000X0.237500X-0.250000X-0.237500X0.250000X-0.237500X0*%
%ADD34R,0.600000X1.200000*%
%ADD35RoundRect,0.237500X-0.237500X0.300000X-0.237500X-0.300000X0.237500X-0.300000X0.237500X0.300000X0*%
%ADD36FreePoly0,90.000000*%
%ADD37FreePoly1,90.000000*%
%ADD38FreePoly2,180.000000*%
%ADD39FreePoly3,180.000000*%
%ADD40RoundRect,0.237500X0.237500X-0.250000X0.237500X0.250000X-0.237500X0.250000X-0.237500X-0.250000X0*%
%ADD41RoundRect,0.237500X0.300000X0.237500X-0.300000X0.237500X-0.300000X-0.237500X0.300000X-0.237500X0*%
%ADD42RoundRect,0.237500X0.237500X-0.300000X0.237500X0.300000X-0.237500X0.300000X-0.237500X-0.300000X0*%
%ADD43FreePoly2,0.000000*%
%ADD44FreePoly3,0.000000*%
%ADD45RoundRect,0.237500X-0.237500X0.250000X-0.237500X-0.250000X0.237500X-0.250000X0.237500X0.250000X0*%
%ADD46R,1.475000X0.300000*%
%ADD47R,0.300000X1.475000*%
%ADD48R,4.210000X4.210000*%
G04 APERTURE END LIST*
D10*
X97840952Y-74047142D02*
X97888571Y-74094761D01*
X98031428Y-74142380D01*
X98126666Y-74142380D01*
X98269523Y-74094761D01*
X98364761Y-73999523D01*
X98412380Y-73904285D01*
X98460000Y-73713809D01*
X98460000Y-73570952D01*
X98412380Y-73380476D01*
X98364761Y-73285238D01*
X98269523Y-73190000D01*
X98126666Y-73142380D01*
X98031428Y-73142380D01*
X97888571Y-73190000D01*
X97840952Y-73237619D01*
X97269523Y-74142380D02*
X97364761Y-74094761D01*
X97412380Y-74047142D01*
X97460000Y-73951904D01*
X97460000Y-73666190D01*
X97412380Y-73570952D01*
X97364761Y-73523333D01*
X97269523Y-73475714D01*
X97126666Y-73475714D01*
X97031428Y-73523333D01*
X96983809Y-73570952D01*
X96936190Y-73666190D01*
X96936190Y-73951904D01*
X96983809Y-74047142D01*
X97031428Y-74094761D01*
X97126666Y-74142380D01*
X97269523Y-74142380D01*
X96364761Y-74142380D02*
X96460000Y-74094761D01*
X96507619Y-73999523D01*
X96507619Y-73142380D01*
X95793333Y-73142380D02*
X95698095Y-73142380D01*
X95602857Y-73190000D01*
X95555238Y-73237619D01*
X95507619Y-73332857D01*
X95460000Y-73523333D01*
X95460000Y-73761428D01*
X95507619Y-73951904D01*
X95555238Y-74047142D01*
X95602857Y-74094761D01*
X95698095Y-74142380D01*
X95793333Y-74142380D01*
X95888571Y-74094761D01*
X95936190Y-74047142D01*
X95983809Y-73951904D01*
X96031428Y-73761428D01*
X96031428Y-73523333D01*
X95983809Y-73332857D01*
X95936190Y-73237619D01*
X95888571Y-73190000D01*
X95793333Y-73142380D01*
X77820000Y-26308095D02*
X77772380Y-26212857D01*
X77772380Y-26070000D01*
X77820000Y-25927142D01*
X77915238Y-25831904D01*
X78010476Y-25784285D01*
X78200952Y-25736666D01*
X78343809Y-25736666D01*
X78534285Y-25784285D01*
X78629523Y-25831904D01*
X78724761Y-25927142D01*
X78772380Y-26070000D01*
X78772380Y-26165238D01*
X78724761Y-26308095D01*
X78677142Y-26355714D01*
X78343809Y-26355714D01*
X78343809Y-26165238D01*
X78772380Y-26784285D02*
X77772380Y-26784285D01*
X78772380Y-27355714D01*
X77772380Y-27355714D01*
X78772380Y-27831904D02*
X77772380Y-27831904D01*
X77772380Y-28070000D01*
X77820000Y-28212857D01*
X77915238Y-28308095D01*
X78010476Y-28355714D01*
X78200952Y-28403333D01*
X78343809Y-28403333D01*
X78534285Y-28355714D01*
X78629523Y-28308095D01*
X78724761Y-28212857D01*
X78772380Y-28070000D01*
X78772380Y-27831904D01*
X97822857Y-81432380D02*
X98156190Y-80956190D01*
X98394285Y-81432380D02*
X98394285Y-80432380D01*
X98013333Y-80432380D01*
X97918095Y-80480000D01*
X97870476Y-80527619D01*
X97822857Y-80622857D01*
X97822857Y-80765714D01*
X97870476Y-80860952D01*
X97918095Y-80908571D01*
X98013333Y-80956190D01*
X98394285Y-80956190D01*
X97251428Y-81432380D02*
X97346666Y-81384761D01*
X97394285Y-81337142D01*
X97441904Y-81241904D01*
X97441904Y-80956190D01*
X97394285Y-80860952D01*
X97346666Y-80813333D01*
X97251428Y-80765714D01*
X97108571Y-80765714D01*
X97013333Y-80813333D01*
X96965714Y-80860952D01*
X96918095Y-80956190D01*
X96918095Y-81241904D01*
X96965714Y-81337142D01*
X97013333Y-81384761D01*
X97108571Y-81432380D01*
X97251428Y-81432380D01*
X96584761Y-80765714D02*
X96394285Y-81432380D01*
X96203809Y-80956190D01*
X96013333Y-81432380D01*
X95822857Y-80765714D01*
X95251428Y-80432380D02*
X95156190Y-80432380D01*
X95060952Y-80480000D01*
X95013333Y-80527619D01*
X94965714Y-80622857D01*
X94918095Y-80813333D01*
X94918095Y-81051428D01*
X94965714Y-81241904D01*
X95013333Y-81337142D01*
X95060952Y-81384761D01*
X95156190Y-81432380D01*
X95251428Y-81432380D01*
X95346666Y-81384761D01*
X95394285Y-81337142D01*
X95441904Y-81241904D01*
X95489523Y-81051428D01*
X95489523Y-80813333D01*
X95441904Y-80622857D01*
X95394285Y-80527619D01*
X95346666Y-80480000D01*
X95251428Y-80432380D01*
X54121904Y-22690000D02*
X54217142Y-22642380D01*
X54360000Y-22642380D01*
X54502857Y-22690000D01*
X54598095Y-22785238D01*
X54645714Y-22880476D01*
X54693333Y-23070952D01*
X54693333Y-23213809D01*
X54645714Y-23404285D01*
X54598095Y-23499523D01*
X54502857Y-23594761D01*
X54360000Y-23642380D01*
X54264761Y-23642380D01*
X54121904Y-23594761D01*
X54074285Y-23547142D01*
X54074285Y-23213809D01*
X54264761Y-23213809D01*
X53645714Y-23642380D02*
X53645714Y-22642380D01*
X53074285Y-23642380D01*
X53074285Y-22642380D01*
X52598095Y-23642380D02*
X52598095Y-22642380D01*
X52360000Y-22642380D01*
X52217142Y-22690000D01*
X52121904Y-22785238D01*
X52074285Y-22880476D01*
X52026666Y-23070952D01*
X52026666Y-23213809D01*
X52074285Y-23404285D01*
X52121904Y-23499523D01*
X52217142Y-23594761D01*
X52360000Y-23642380D01*
X52598095Y-23642380D01*
%TO.C,D10*%
X96764285Y-91602380D02*
X96764285Y-90602380D01*
X96526190Y-90602380D01*
X96383333Y-90650000D01*
X96288095Y-90745238D01*
X96240476Y-90840476D01*
X96192857Y-91030952D01*
X96192857Y-91173809D01*
X96240476Y-91364285D01*
X96288095Y-91459523D01*
X96383333Y-91554761D01*
X96526190Y-91602380D01*
X96764285Y-91602380D01*
X95240476Y-91602380D02*
X95811904Y-91602380D01*
X95526190Y-91602380D02*
X95526190Y-90602380D01*
X95621428Y-90745238D01*
X95716666Y-90840476D01*
X95811904Y-90888095D01*
X94621428Y-90602380D02*
X94526190Y-90602380D01*
X94430952Y-90650000D01*
X94383333Y-90697619D01*
X94335714Y-90792857D01*
X94288095Y-90983333D01*
X94288095Y-91221428D01*
X94335714Y-91411904D01*
X94383333Y-91507142D01*
X94430952Y-91554761D01*
X94526190Y-91602380D01*
X94621428Y-91602380D01*
X94716666Y-91554761D01*
X94764285Y-91507142D01*
X94811904Y-91411904D01*
X94859523Y-91221428D01*
X94859523Y-90983333D01*
X94811904Y-90792857D01*
X94764285Y-90697619D01*
X94716666Y-90650000D01*
X94621428Y-90602380D01*
%TO.C,S7*%
X50761904Y-91704761D02*
X50619047Y-91752380D01*
X50380952Y-91752380D01*
X50285714Y-91704761D01*
X50238095Y-91657142D01*
X50190476Y-91561904D01*
X50190476Y-91466666D01*
X50238095Y-91371428D01*
X50285714Y-91323809D01*
X50380952Y-91276190D01*
X50571428Y-91228571D01*
X50666666Y-91180952D01*
X50714285Y-91133333D01*
X50761904Y-91038095D01*
X50761904Y-90942857D01*
X50714285Y-90847619D01*
X50666666Y-90800000D01*
X50571428Y-90752380D01*
X50333333Y-90752380D01*
X50190476Y-90800000D01*
X49857142Y-90752380D02*
X49190476Y-90752380D01*
X49619047Y-91752380D01*
%TO.C,C14*%
X99030357Y-53857142D02*
X99077976Y-53904761D01*
X99220833Y-53952380D01*
X99316071Y-53952380D01*
X99458928Y-53904761D01*
X99554166Y-53809523D01*
X99601785Y-53714285D01*
X99649404Y-53523809D01*
X99649404Y-53380952D01*
X99601785Y-53190476D01*
X99554166Y-53095238D01*
X99458928Y-53000000D01*
X99316071Y-52952380D01*
X99220833Y-52952380D01*
X99077976Y-53000000D01*
X99030357Y-53047619D01*
X98077976Y-53952380D02*
X98649404Y-53952380D01*
X98363690Y-53952380D02*
X98363690Y-52952380D01*
X98458928Y-53095238D01*
X98554166Y-53190476D01*
X98649404Y-53238095D01*
X97220833Y-53285714D02*
X97220833Y-53952380D01*
X97458928Y-52904761D02*
X97697023Y-53619047D01*
X97077976Y-53619047D01*
%TO.C,D13*%
X65202380Y-96785714D02*
X64202380Y-96785714D01*
X64202380Y-97023809D01*
X64250000Y-97166666D01*
X64345238Y-97261904D01*
X64440476Y-97309523D01*
X64630952Y-97357142D01*
X64773809Y-97357142D01*
X64964285Y-97309523D01*
X65059523Y-97261904D01*
X65154761Y-97166666D01*
X65202380Y-97023809D01*
X65202380Y-96785714D01*
X65202380Y-98309523D02*
X65202380Y-97738095D01*
X65202380Y-98023809D02*
X64202380Y-98023809D01*
X64345238Y-97928571D01*
X64440476Y-97833333D01*
X64488095Y-97738095D01*
X64202380Y-98642857D02*
X64202380Y-99261904D01*
X64583333Y-98928571D01*
X64583333Y-99071428D01*
X64630952Y-99166666D01*
X64678571Y-99214285D01*
X64773809Y-99261904D01*
X65011904Y-99261904D01*
X65107142Y-99214285D01*
X65154761Y-99166666D01*
X65202380Y-99071428D01*
X65202380Y-98785714D01*
X65154761Y-98690476D01*
X65107142Y-98642857D01*
X72664285Y-95652380D02*
X73235714Y-95652380D01*
X72950000Y-95652380D02*
X72950000Y-94652380D01*
X73045238Y-94795238D01*
X73140476Y-94890476D01*
X73235714Y-94938095D01*
%TO.C,D9*%
X77538095Y-91552380D02*
X77538095Y-90552380D01*
X77300000Y-90552380D01*
X77157142Y-90600000D01*
X77061904Y-90695238D01*
X77014285Y-90790476D01*
X76966666Y-90980952D01*
X76966666Y-91123809D01*
X77014285Y-91314285D01*
X77061904Y-91409523D01*
X77157142Y-91504761D01*
X77300000Y-91552380D01*
X77538095Y-91552380D01*
X76490476Y-91552380D02*
X76300000Y-91552380D01*
X76204761Y-91504761D01*
X76157142Y-91457142D01*
X76061904Y-91314285D01*
X76014285Y-91123809D01*
X76014285Y-90742857D01*
X76061904Y-90647619D01*
X76109523Y-90600000D01*
X76204761Y-90552380D01*
X76395238Y-90552380D01*
X76490476Y-90600000D01*
X76538095Y-90647619D01*
X76585714Y-90742857D01*
X76585714Y-90980952D01*
X76538095Y-91076190D01*
X76490476Y-91123809D01*
X76395238Y-91171428D01*
X76204761Y-91171428D01*
X76109523Y-91123809D01*
X76061904Y-91076190D01*
X76014285Y-90980952D01*
%TO.C,D12*%
X43902380Y-58285714D02*
X42902380Y-58285714D01*
X42902380Y-58523809D01*
X42950000Y-58666666D01*
X43045238Y-58761904D01*
X43140476Y-58809523D01*
X43330952Y-58857142D01*
X43473809Y-58857142D01*
X43664285Y-58809523D01*
X43759523Y-58761904D01*
X43854761Y-58666666D01*
X43902380Y-58523809D01*
X43902380Y-58285714D01*
X43902380Y-59809523D02*
X43902380Y-59238095D01*
X43902380Y-59523809D02*
X42902380Y-59523809D01*
X43045238Y-59428571D01*
X43140476Y-59333333D01*
X43188095Y-59238095D01*
X42997619Y-60190476D02*
X42950000Y-60238095D01*
X42902380Y-60333333D01*
X42902380Y-60571428D01*
X42950000Y-60666666D01*
X42997619Y-60714285D01*
X43092857Y-60761904D01*
X43188095Y-60761904D01*
X43330952Y-60714285D01*
X43902380Y-60142857D01*
X43902380Y-60761904D01*
X43102380Y-64035714D02*
X43102380Y-63464285D01*
X43102380Y-63750000D02*
X42102380Y-63750000D01*
X42245238Y-63654761D01*
X42340476Y-63559523D01*
X42388095Y-63464285D01*
%TO.C,D2*%
X58438095Y-53352380D02*
X58438095Y-52352380D01*
X58200000Y-52352380D01*
X58057142Y-52400000D01*
X57961904Y-52495238D01*
X57914285Y-52590476D01*
X57866666Y-52780952D01*
X57866666Y-52923809D01*
X57914285Y-53114285D01*
X57961904Y-53209523D01*
X58057142Y-53304761D01*
X58200000Y-53352380D01*
X58438095Y-53352380D01*
X57485714Y-52447619D02*
X57438095Y-52400000D01*
X57342857Y-52352380D01*
X57104761Y-52352380D01*
X57009523Y-52400000D01*
X56961904Y-52447619D01*
X56914285Y-52542857D01*
X56914285Y-52638095D01*
X56961904Y-52780952D01*
X57533333Y-53352380D01*
X56914285Y-53352380D01*
%TO.C,D7*%
X96438095Y-72852380D02*
X96438095Y-71852380D01*
X96200000Y-71852380D01*
X96057142Y-71900000D01*
X95961904Y-71995238D01*
X95914285Y-72090476D01*
X95866666Y-72280952D01*
X95866666Y-72423809D01*
X95914285Y-72614285D01*
X95961904Y-72709523D01*
X96057142Y-72804761D01*
X96200000Y-72852380D01*
X96438095Y-72852380D01*
X95533333Y-71852380D02*
X94866666Y-71852380D01*
X95295238Y-72852380D01*
%TO.C,R8*%
X73966666Y-24452380D02*
X74300000Y-23976190D01*
X74538095Y-24452380D02*
X74538095Y-23452380D01*
X74157142Y-23452380D01*
X74061904Y-23500000D01*
X74014285Y-23547619D01*
X73966666Y-23642857D01*
X73966666Y-23785714D01*
X74014285Y-23880952D01*
X74061904Y-23928571D01*
X74157142Y-23976190D01*
X74538095Y-23976190D01*
X73395238Y-23880952D02*
X73490476Y-23833333D01*
X73538095Y-23785714D01*
X73585714Y-23690476D01*
X73585714Y-23642857D01*
X73538095Y-23547619D01*
X73490476Y-23500000D01*
X73395238Y-23452380D01*
X73204761Y-23452380D01*
X73109523Y-23500000D01*
X73061904Y-23547619D01*
X73014285Y-23642857D01*
X73014285Y-23690476D01*
X73061904Y-23785714D01*
X73109523Y-23833333D01*
X73204761Y-23880952D01*
X73395238Y-23880952D01*
X73490476Y-23928571D01*
X73538095Y-23976190D01*
X73585714Y-24071428D01*
X73585714Y-24261904D01*
X73538095Y-24357142D01*
X73490476Y-24404761D01*
X73395238Y-24452380D01*
X73204761Y-24452380D01*
X73109523Y-24404761D01*
X73061904Y-24357142D01*
X73014285Y-24261904D01*
X73014285Y-24071428D01*
X73061904Y-23976190D01*
X73109523Y-23928571D01*
X73204761Y-23880952D01*
D11*
%TO.C,L1*%
X68451666Y-30414523D02*
X69056428Y-30414523D01*
X69056428Y-29144523D01*
X67363095Y-30414523D02*
X68088809Y-30414523D01*
X67725952Y-30414523D02*
X67725952Y-29144523D01*
X67846904Y-29325952D01*
X67967857Y-29446904D01*
X68088809Y-29507380D01*
D10*
%TO.C,C13*%
X75482142Y-97082142D02*
X75529761Y-97034523D01*
X75577380Y-96891666D01*
X75577380Y-96796428D01*
X75529761Y-96653571D01*
X75434523Y-96558333D01*
X75339285Y-96510714D01*
X75148809Y-96463095D01*
X75005952Y-96463095D01*
X74815476Y-96510714D01*
X74720238Y-96558333D01*
X74625000Y-96653571D01*
X74577380Y-96796428D01*
X74577380Y-96891666D01*
X74625000Y-97034523D01*
X74672619Y-97082142D01*
X75577380Y-98034523D02*
X75577380Y-97463095D01*
X75577380Y-97748809D02*
X74577380Y-97748809D01*
X74720238Y-97653571D01*
X74815476Y-97558333D01*
X74863095Y-97463095D01*
X74577380Y-98367857D02*
X74577380Y-98986904D01*
X74958333Y-98653571D01*
X74958333Y-98796428D01*
X75005952Y-98891666D01*
X75053571Y-98939285D01*
X75148809Y-98986904D01*
X75386904Y-98986904D01*
X75482142Y-98939285D01*
X75529761Y-98891666D01*
X75577380Y-98796428D01*
X75577380Y-98510714D01*
X75529761Y-98415476D01*
X75482142Y-98367857D01*
%TO.C,S5*%
X69811904Y-72504761D02*
X69669047Y-72552380D01*
X69430952Y-72552380D01*
X69335714Y-72504761D01*
X69288095Y-72457142D01*
X69240476Y-72361904D01*
X69240476Y-72266666D01*
X69288095Y-72171428D01*
X69335714Y-72123809D01*
X69430952Y-72076190D01*
X69621428Y-72028571D01*
X69716666Y-71980952D01*
X69764285Y-71933333D01*
X69811904Y-71838095D01*
X69811904Y-71742857D01*
X69764285Y-71647619D01*
X69716666Y-71600000D01*
X69621428Y-71552380D01*
X69383333Y-71552380D01*
X69240476Y-71600000D01*
X68335714Y-71552380D02*
X68811904Y-71552380D01*
X68859523Y-72028571D01*
X68811904Y-71980952D01*
X68716666Y-71933333D01*
X68478571Y-71933333D01*
X68383333Y-71980952D01*
X68335714Y-72028571D01*
X68288095Y-72123809D01*
X68288095Y-72361904D01*
X68335714Y-72457142D01*
X68383333Y-72504761D01*
X68478571Y-72552380D01*
X68716666Y-72552380D01*
X68811904Y-72504761D01*
X68859523Y-72457142D01*
%TO.C,S4*%
X50761904Y-72604761D02*
X50619047Y-72652380D01*
X50380952Y-72652380D01*
X50285714Y-72604761D01*
X50238095Y-72557142D01*
X50190476Y-72461904D01*
X50190476Y-72366666D01*
X50238095Y-72271428D01*
X50285714Y-72223809D01*
X50380952Y-72176190D01*
X50571428Y-72128571D01*
X50666666Y-72080952D01*
X50714285Y-72033333D01*
X50761904Y-71938095D01*
X50761904Y-71842857D01*
X50714285Y-71747619D01*
X50666666Y-71700000D01*
X50571428Y-71652380D01*
X50333333Y-71652380D01*
X50190476Y-71700000D01*
X49333333Y-71985714D02*
X49333333Y-72652380D01*
X49571428Y-71604761D02*
X49809523Y-72319047D01*
X49190476Y-72319047D01*
%TO.C,D14*%
X96002380Y-58285714D02*
X95002380Y-58285714D01*
X95002380Y-58523809D01*
X95050000Y-58666666D01*
X95145238Y-58761904D01*
X95240476Y-58809523D01*
X95430952Y-58857142D01*
X95573809Y-58857142D01*
X95764285Y-58809523D01*
X95859523Y-58761904D01*
X95954761Y-58666666D01*
X96002380Y-58523809D01*
X96002380Y-58285714D01*
X96002380Y-59809523D02*
X96002380Y-59238095D01*
X96002380Y-59523809D02*
X95002380Y-59523809D01*
X95145238Y-59428571D01*
X95240476Y-59333333D01*
X95288095Y-59238095D01*
X95335714Y-60666666D02*
X96002380Y-60666666D01*
X94954761Y-60428571D02*
X95669047Y-60190476D01*
X95669047Y-60809523D01*
X96052380Y-55735714D02*
X96052380Y-55164285D01*
X96052380Y-55450000D02*
X95052380Y-55450000D01*
X95195238Y-55354761D01*
X95290476Y-55259523D01*
X95338095Y-55164285D01*
%TO.C,R6*%
X65136666Y-27242380D02*
X65470000Y-26766190D01*
X65708095Y-27242380D02*
X65708095Y-26242380D01*
X65327142Y-26242380D01*
X65231904Y-26290000D01*
X65184285Y-26337619D01*
X65136666Y-26432857D01*
X65136666Y-26575714D01*
X65184285Y-26670952D01*
X65231904Y-26718571D01*
X65327142Y-26766190D01*
X65708095Y-26766190D01*
X64279523Y-26242380D02*
X64470000Y-26242380D01*
X64565238Y-26290000D01*
X64612857Y-26337619D01*
X64708095Y-26480476D01*
X64755714Y-26670952D01*
X64755714Y-27051904D01*
X64708095Y-27147142D01*
X64660476Y-27194761D01*
X64565238Y-27242380D01*
X64374761Y-27242380D01*
X64279523Y-27194761D01*
X64231904Y-27147142D01*
X64184285Y-27051904D01*
X64184285Y-26813809D01*
X64231904Y-26718571D01*
X64279523Y-26670952D01*
X64374761Y-26623333D01*
X64565238Y-26623333D01*
X64660476Y-26670952D01*
X64708095Y-26718571D01*
X64755714Y-26813809D01*
%TO.C,S3*%
X88861904Y-53504761D02*
X88719047Y-53552380D01*
X88480952Y-53552380D01*
X88385714Y-53504761D01*
X88338095Y-53457142D01*
X88290476Y-53361904D01*
X88290476Y-53266666D01*
X88338095Y-53171428D01*
X88385714Y-53123809D01*
X88480952Y-53076190D01*
X88671428Y-53028571D01*
X88766666Y-52980952D01*
X88814285Y-52933333D01*
X88861904Y-52838095D01*
X88861904Y-52742857D01*
X88814285Y-52647619D01*
X88766666Y-52600000D01*
X88671428Y-52552380D01*
X88433333Y-52552380D01*
X88290476Y-52600000D01*
X87957142Y-52552380D02*
X87338095Y-52552380D01*
X87671428Y-52933333D01*
X87528571Y-52933333D01*
X87433333Y-52980952D01*
X87385714Y-53028571D01*
X87338095Y-53123809D01*
X87338095Y-53361904D01*
X87385714Y-53457142D01*
X87433333Y-53504761D01*
X87528571Y-53552380D01*
X87814285Y-53552380D01*
X87909523Y-53504761D01*
X87957142Y-53457142D01*
%TO.C,S2*%
X69811904Y-53604761D02*
X69669047Y-53652380D01*
X69430952Y-53652380D01*
X69335714Y-53604761D01*
X69288095Y-53557142D01*
X69240476Y-53461904D01*
X69240476Y-53366666D01*
X69288095Y-53271428D01*
X69335714Y-53223809D01*
X69430952Y-53176190D01*
X69621428Y-53128571D01*
X69716666Y-53080952D01*
X69764285Y-53033333D01*
X69811904Y-52938095D01*
X69811904Y-52842857D01*
X69764285Y-52747619D01*
X69716666Y-52700000D01*
X69621428Y-52652380D01*
X69383333Y-52652380D01*
X69240476Y-52700000D01*
X68859523Y-52747619D02*
X68811904Y-52700000D01*
X68716666Y-52652380D01*
X68478571Y-52652380D01*
X68383333Y-52700000D01*
X68335714Y-52747619D01*
X68288095Y-52842857D01*
X68288095Y-52938095D01*
X68335714Y-53080952D01*
X68907142Y-53652380D01*
X68288095Y-53652380D01*
%TO.C,S9*%
X88861904Y-91704761D02*
X88719047Y-91752380D01*
X88480952Y-91752380D01*
X88385714Y-91704761D01*
X88338095Y-91657142D01*
X88290476Y-91561904D01*
X88290476Y-91466666D01*
X88338095Y-91371428D01*
X88385714Y-91323809D01*
X88480952Y-91276190D01*
X88671428Y-91228571D01*
X88766666Y-91180952D01*
X88814285Y-91133333D01*
X88861904Y-91038095D01*
X88861904Y-90942857D01*
X88814285Y-90847619D01*
X88766666Y-90800000D01*
X88671428Y-90752380D01*
X88433333Y-90752380D01*
X88290476Y-90800000D01*
X87814285Y-91752380D02*
X87623809Y-91752380D01*
X87528571Y-91704761D01*
X87480952Y-91657142D01*
X87385714Y-91514285D01*
X87338095Y-91323809D01*
X87338095Y-90942857D01*
X87385714Y-90847619D01*
X87433333Y-90800000D01*
X87528571Y-90752380D01*
X87719047Y-90752380D01*
X87814285Y-90800000D01*
X87861904Y-90847619D01*
X87909523Y-90942857D01*
X87909523Y-91180952D01*
X87861904Y-91276190D01*
X87814285Y-91323809D01*
X87719047Y-91371428D01*
X87528571Y-91371428D01*
X87433333Y-91323809D01*
X87385714Y-91276190D01*
X87338095Y-91180952D01*
%TO.C,S1*%
X50761904Y-53604761D02*
X50619047Y-53652380D01*
X50380952Y-53652380D01*
X50285714Y-53604761D01*
X50238095Y-53557142D01*
X50190476Y-53461904D01*
X50190476Y-53366666D01*
X50238095Y-53271428D01*
X50285714Y-53223809D01*
X50380952Y-53176190D01*
X50571428Y-53128571D01*
X50666666Y-53080952D01*
X50714285Y-53033333D01*
X50761904Y-52938095D01*
X50761904Y-52842857D01*
X50714285Y-52747619D01*
X50666666Y-52700000D01*
X50571428Y-52652380D01*
X50333333Y-52652380D01*
X50190476Y-52700000D01*
X49238095Y-53652380D02*
X49809523Y-53652380D01*
X49523809Y-53652380D02*
X49523809Y-52652380D01*
X49619047Y-52795238D01*
X49714285Y-52890476D01*
X49809523Y-52938095D01*
%TO.C,JP1*%
X73690833Y-34052380D02*
X73690833Y-34766666D01*
X73738452Y-34909523D01*
X73833690Y-35004761D01*
X73976547Y-35052380D01*
X74071785Y-35052380D01*
X73214642Y-35052380D02*
X73214642Y-34052380D01*
X72833690Y-34052380D01*
X72738452Y-34100000D01*
X72690833Y-34147619D01*
X72643214Y-34242857D01*
X72643214Y-34385714D01*
X72690833Y-34480952D01*
X72738452Y-34528571D01*
X72833690Y-34576190D01*
X73214642Y-34576190D01*
X71690833Y-35052380D02*
X72262261Y-35052380D01*
X71976547Y-35052380D02*
X71976547Y-34052380D01*
X72071785Y-34195238D01*
X72167023Y-34290476D01*
X72262261Y-34338095D01*
%TO.C,JP4*%
X60533333Y-20052380D02*
X60533333Y-20766666D01*
X60580952Y-20909523D01*
X60676190Y-21004761D01*
X60819047Y-21052380D01*
X60914285Y-21052380D01*
X60057142Y-21052380D02*
X60057142Y-20052380D01*
X59676190Y-20052380D01*
X59580952Y-20100000D01*
X59533333Y-20147619D01*
X59485714Y-20242857D01*
X59485714Y-20385714D01*
X59533333Y-20480952D01*
X59580952Y-20528571D01*
X59676190Y-20576190D01*
X60057142Y-20576190D01*
X58628571Y-20385714D02*
X58628571Y-21052380D01*
X58866666Y-20004761D02*
X59104761Y-20719047D01*
X58485714Y-20719047D01*
%TO.C,R7*%
X65032380Y-28943333D02*
X64556190Y-28610000D01*
X65032380Y-28371904D02*
X64032380Y-28371904D01*
X64032380Y-28752857D01*
X64080000Y-28848095D01*
X64127619Y-28895714D01*
X64222857Y-28943333D01*
X64365714Y-28943333D01*
X64460952Y-28895714D01*
X64508571Y-28848095D01*
X64556190Y-28752857D01*
X64556190Y-28371904D01*
X64032380Y-29276666D02*
X64032380Y-29943333D01*
X65032380Y-29514761D01*
%TO.C,C12*%
X40492857Y-65807142D02*
X40540476Y-65854761D01*
X40683333Y-65902380D01*
X40778571Y-65902380D01*
X40921428Y-65854761D01*
X41016666Y-65759523D01*
X41064285Y-65664285D01*
X41111904Y-65473809D01*
X41111904Y-65330952D01*
X41064285Y-65140476D01*
X41016666Y-65045238D01*
X40921428Y-64950000D01*
X40778571Y-64902380D01*
X40683333Y-64902380D01*
X40540476Y-64950000D01*
X40492857Y-64997619D01*
X39540476Y-65902380D02*
X40111904Y-65902380D01*
X39826190Y-65902380D02*
X39826190Y-64902380D01*
X39921428Y-65045238D01*
X40016666Y-65140476D01*
X40111904Y-65188095D01*
X39159523Y-64997619D02*
X39111904Y-64950000D01*
X39016666Y-64902380D01*
X38778571Y-64902380D01*
X38683333Y-64950000D01*
X38635714Y-64997619D01*
X38588095Y-65092857D01*
X38588095Y-65188095D01*
X38635714Y-65330952D01*
X39207142Y-65902380D01*
X38588095Y-65902380D01*
%TO.C,R3*%
X56566666Y-26602380D02*
X56900000Y-26126190D01*
X57138095Y-26602380D02*
X57138095Y-25602380D01*
X56757142Y-25602380D01*
X56661904Y-25650000D01*
X56614285Y-25697619D01*
X56566666Y-25792857D01*
X56566666Y-25935714D01*
X56614285Y-26030952D01*
X56661904Y-26078571D01*
X56757142Y-26126190D01*
X57138095Y-26126190D01*
X56233333Y-25602380D02*
X55614285Y-25602380D01*
X55947619Y-25983333D01*
X55804761Y-25983333D01*
X55709523Y-26030952D01*
X55661904Y-26078571D01*
X55614285Y-26173809D01*
X55614285Y-26411904D01*
X55661904Y-26507142D01*
X55709523Y-26554761D01*
X55804761Y-26602380D01*
X56090476Y-26602380D01*
X56185714Y-26554761D01*
X56233333Y-26507142D01*
%TO.C,C11*%
X63082142Y-20982142D02*
X63129761Y-20934523D01*
X63177380Y-20791666D01*
X63177380Y-20696428D01*
X63129761Y-20553571D01*
X63034523Y-20458333D01*
X62939285Y-20410714D01*
X62748809Y-20363095D01*
X62605952Y-20363095D01*
X62415476Y-20410714D01*
X62320238Y-20458333D01*
X62225000Y-20553571D01*
X62177380Y-20696428D01*
X62177380Y-20791666D01*
X62225000Y-20934523D01*
X62272619Y-20982142D01*
X63177380Y-21934523D02*
X63177380Y-21363095D01*
X63177380Y-21648809D02*
X62177380Y-21648809D01*
X62320238Y-21553571D01*
X62415476Y-21458333D01*
X62463095Y-21363095D01*
X63177380Y-22886904D02*
X63177380Y-22315476D01*
X63177380Y-22601190D02*
X62177380Y-22601190D01*
X62320238Y-22505952D01*
X62415476Y-22410714D01*
X62463095Y-22315476D01*
%TO.C,D1*%
X91452380Y-27661904D02*
X90452380Y-27661904D01*
X90452380Y-27900000D01*
X90500000Y-28042857D01*
X90595238Y-28138095D01*
X90690476Y-28185714D01*
X90880952Y-28233333D01*
X91023809Y-28233333D01*
X91214285Y-28185714D01*
X91309523Y-28138095D01*
X91404761Y-28042857D01*
X91452380Y-27900000D01*
X91452380Y-27661904D01*
X91452380Y-29185714D02*
X91452380Y-28614285D01*
X91452380Y-28900000D02*
X90452380Y-28900000D01*
X90595238Y-28804761D01*
X90690476Y-28709523D01*
X90738095Y-28614285D01*
%TO.C,JP2*%
X43033333Y-22052380D02*
X43033333Y-22766666D01*
X43080952Y-22909523D01*
X43176190Y-23004761D01*
X43319047Y-23052380D01*
X43414285Y-23052380D01*
X42557142Y-23052380D02*
X42557142Y-22052380D01*
X42176190Y-22052380D01*
X42080952Y-22100000D01*
X42033333Y-22147619D01*
X41985714Y-22242857D01*
X41985714Y-22385714D01*
X42033333Y-22480952D01*
X42080952Y-22528571D01*
X42176190Y-22576190D01*
X42557142Y-22576190D01*
X41604761Y-22147619D02*
X41557142Y-22100000D01*
X41461904Y-22052380D01*
X41223809Y-22052380D01*
X41128571Y-22100000D01*
X41080952Y-22147619D01*
X41033333Y-22242857D01*
X41033333Y-22338095D01*
X41080952Y-22480952D01*
X41652380Y-23052380D01*
X41033333Y-23052380D01*
%TO.C,R9*%
X70716666Y-30102380D02*
X71050000Y-29626190D01*
X71288095Y-30102380D02*
X71288095Y-29102380D01*
X70907142Y-29102380D01*
X70811904Y-29150000D01*
X70764285Y-29197619D01*
X70716666Y-29292857D01*
X70716666Y-29435714D01*
X70764285Y-29530952D01*
X70811904Y-29578571D01*
X70907142Y-29626190D01*
X71288095Y-29626190D01*
X70240476Y-30102380D02*
X70050000Y-30102380D01*
X69954761Y-30054761D01*
X69907142Y-30007142D01*
X69811904Y-29864285D01*
X69764285Y-29673809D01*
X69764285Y-29292857D01*
X69811904Y-29197619D01*
X69859523Y-29150000D01*
X69954761Y-29102380D01*
X70145238Y-29102380D01*
X70240476Y-29150000D01*
X70288095Y-29197619D01*
X70335714Y-29292857D01*
X70335714Y-29530952D01*
X70288095Y-29626190D01*
X70240476Y-29673809D01*
X70145238Y-29721428D01*
X69954761Y-29721428D01*
X69859523Y-29673809D01*
X69811904Y-29626190D01*
X69764285Y-29530952D01*
%TO.C,D3*%
X77538095Y-53452380D02*
X77538095Y-52452380D01*
X77300000Y-52452380D01*
X77157142Y-52500000D01*
X77061904Y-52595238D01*
X77014285Y-52690476D01*
X76966666Y-52880952D01*
X76966666Y-53023809D01*
X77014285Y-53214285D01*
X77061904Y-53309523D01*
X77157142Y-53404761D01*
X77300000Y-53452380D01*
X77538095Y-53452380D01*
X76633333Y-52452380D02*
X76014285Y-52452380D01*
X76347619Y-52833333D01*
X76204761Y-52833333D01*
X76109523Y-52880952D01*
X76061904Y-52928571D01*
X76014285Y-53023809D01*
X76014285Y-53261904D01*
X76061904Y-53357142D01*
X76109523Y-53404761D01*
X76204761Y-53452380D01*
X76490476Y-53452380D01*
X76585714Y-53404761D01*
X76633333Y-53357142D01*
%TO.C,S6*%
X88861904Y-72604761D02*
X88719047Y-72652380D01*
X88480952Y-72652380D01*
X88385714Y-72604761D01*
X88338095Y-72557142D01*
X88290476Y-72461904D01*
X88290476Y-72366666D01*
X88338095Y-72271428D01*
X88385714Y-72223809D01*
X88480952Y-72176190D01*
X88671428Y-72128571D01*
X88766666Y-72080952D01*
X88814285Y-72033333D01*
X88861904Y-71938095D01*
X88861904Y-71842857D01*
X88814285Y-71747619D01*
X88766666Y-71700000D01*
X88671428Y-71652380D01*
X88433333Y-71652380D01*
X88290476Y-71700000D01*
X87433333Y-71652380D02*
X87623809Y-71652380D01*
X87719047Y-71700000D01*
X87766666Y-71747619D01*
X87861904Y-71890476D01*
X87909523Y-72080952D01*
X87909523Y-72461904D01*
X87861904Y-72557142D01*
X87814285Y-72604761D01*
X87719047Y-72652380D01*
X87528571Y-72652380D01*
X87433333Y-72604761D01*
X87385714Y-72557142D01*
X87338095Y-72461904D01*
X87338095Y-72223809D01*
X87385714Y-72128571D01*
X87433333Y-72080952D01*
X87528571Y-72033333D01*
X87719047Y-72033333D01*
X87814285Y-72080952D01*
X87861904Y-72128571D01*
X87909523Y-72223809D01*
%TO.C,S8*%
X69811904Y-91604761D02*
X69669047Y-91652380D01*
X69430952Y-91652380D01*
X69335714Y-91604761D01*
X69288095Y-91557142D01*
X69240476Y-91461904D01*
X69240476Y-91366666D01*
X69288095Y-91271428D01*
X69335714Y-91223809D01*
X69430952Y-91176190D01*
X69621428Y-91128571D01*
X69716666Y-91080952D01*
X69764285Y-91033333D01*
X69811904Y-90938095D01*
X69811904Y-90842857D01*
X69764285Y-90747619D01*
X69716666Y-90700000D01*
X69621428Y-90652380D01*
X69383333Y-90652380D01*
X69240476Y-90700000D01*
X68669047Y-91080952D02*
X68764285Y-91033333D01*
X68811904Y-90985714D01*
X68859523Y-90890476D01*
X68859523Y-90842857D01*
X68811904Y-90747619D01*
X68764285Y-90700000D01*
X68669047Y-90652380D01*
X68478571Y-90652380D01*
X68383333Y-90700000D01*
X68335714Y-90747619D01*
X68288095Y-90842857D01*
X68288095Y-90890476D01*
X68335714Y-90985714D01*
X68383333Y-91033333D01*
X68478571Y-91080952D01*
X68669047Y-91080952D01*
X68764285Y-91128571D01*
X68811904Y-91176190D01*
X68859523Y-91271428D01*
X68859523Y-91461904D01*
X68811904Y-91557142D01*
X68764285Y-91604761D01*
X68669047Y-91652380D01*
X68478571Y-91652380D01*
X68383333Y-91604761D01*
X68335714Y-91557142D01*
X68288095Y-91461904D01*
X68288095Y-91271428D01*
X68335714Y-91176190D01*
X68383333Y-91128571D01*
X68478571Y-91080952D01*
%TO.C,D8*%
X58538095Y-91552380D02*
X58538095Y-90552380D01*
X58300000Y-90552380D01*
X58157142Y-90600000D01*
X58061904Y-90695238D01*
X58014285Y-90790476D01*
X57966666Y-90980952D01*
X57966666Y-91123809D01*
X58014285Y-91314285D01*
X58061904Y-91409523D01*
X58157142Y-91504761D01*
X58300000Y-91552380D01*
X58538095Y-91552380D01*
X57395238Y-90980952D02*
X57490476Y-90933333D01*
X57538095Y-90885714D01*
X57585714Y-90790476D01*
X57585714Y-90742857D01*
X57538095Y-90647619D01*
X57490476Y-90600000D01*
X57395238Y-90552380D01*
X57204761Y-90552380D01*
X57109523Y-90600000D01*
X57061904Y-90647619D01*
X57014285Y-90742857D01*
X57014285Y-90790476D01*
X57061904Y-90885714D01*
X57109523Y-90933333D01*
X57204761Y-90980952D01*
X57395238Y-90980952D01*
X57490476Y-91028571D01*
X57538095Y-91076190D01*
X57585714Y-91171428D01*
X57585714Y-91361904D01*
X57538095Y-91457142D01*
X57490476Y-91504761D01*
X57395238Y-91552380D01*
X57204761Y-91552380D01*
X57109523Y-91504761D01*
X57061904Y-91457142D01*
X57014285Y-91361904D01*
X57014285Y-91171428D01*
X57061904Y-91076190D01*
X57109523Y-91028571D01*
X57204761Y-90980952D01*
%TO.C,D6*%
X77438095Y-72702380D02*
X77438095Y-71702380D01*
X77200000Y-71702380D01*
X77057142Y-71750000D01*
X76961904Y-71845238D01*
X76914285Y-71940476D01*
X76866666Y-72130952D01*
X76866666Y-72273809D01*
X76914285Y-72464285D01*
X76961904Y-72559523D01*
X77057142Y-72654761D01*
X77200000Y-72702380D01*
X77438095Y-72702380D01*
X76009523Y-71702380D02*
X76200000Y-71702380D01*
X76295238Y-71750000D01*
X76342857Y-71797619D01*
X76438095Y-71940476D01*
X76485714Y-72130952D01*
X76485714Y-72511904D01*
X76438095Y-72607142D01*
X76390476Y-72654761D01*
X76295238Y-72702380D01*
X76104761Y-72702380D01*
X76009523Y-72654761D01*
X75961904Y-72607142D01*
X75914285Y-72511904D01*
X75914285Y-72273809D01*
X75961904Y-72178571D01*
X76009523Y-72130952D01*
X76104761Y-72083333D01*
X76295238Y-72083333D01*
X76390476Y-72130952D01*
X76438095Y-72178571D01*
X76485714Y-72273809D01*
%TO.C,JP3*%
X47133333Y-26102380D02*
X47133333Y-26816666D01*
X47180952Y-26959523D01*
X47276190Y-27054761D01*
X47419047Y-27102380D01*
X47514285Y-27102380D01*
X46657142Y-27102380D02*
X46657142Y-26102380D01*
X46276190Y-26102380D01*
X46180952Y-26150000D01*
X46133333Y-26197619D01*
X46085714Y-26292857D01*
X46085714Y-26435714D01*
X46133333Y-26530952D01*
X46180952Y-26578571D01*
X46276190Y-26626190D01*
X46657142Y-26626190D01*
X45752380Y-26102380D02*
X45133333Y-26102380D01*
X45466666Y-26483333D01*
X45323809Y-26483333D01*
X45228571Y-26530952D01*
X45180952Y-26578571D01*
X45133333Y-26673809D01*
X45133333Y-26911904D01*
X45180952Y-27007142D01*
X45228571Y-27054761D01*
X45323809Y-27102380D01*
X45609523Y-27102380D01*
X45704761Y-27054761D01*
X45752380Y-27007142D01*
%TO.C,R5*%
X44072380Y-31183333D02*
X43596190Y-30850000D01*
X44072380Y-30611904D02*
X43072380Y-30611904D01*
X43072380Y-30992857D01*
X43120000Y-31088095D01*
X43167619Y-31135714D01*
X43262857Y-31183333D01*
X43405714Y-31183333D01*
X43500952Y-31135714D01*
X43548571Y-31088095D01*
X43596190Y-30992857D01*
X43596190Y-30611904D01*
X43072380Y-32088095D02*
X43072380Y-31611904D01*
X43548571Y-31564285D01*
X43500952Y-31611904D01*
X43453333Y-31707142D01*
X43453333Y-31945238D01*
X43500952Y-32040476D01*
X43548571Y-32088095D01*
X43643809Y-32135714D01*
X43881904Y-32135714D01*
X43977142Y-32088095D01*
X44024761Y-32040476D01*
X44072380Y-31945238D01*
X44072380Y-31707142D01*
X44024761Y-31611904D01*
X43977142Y-31564285D01*
%TO.C,D4*%
X96538095Y-53452380D02*
X96538095Y-52452380D01*
X96300000Y-52452380D01*
X96157142Y-52500000D01*
X96061904Y-52595238D01*
X96014285Y-52690476D01*
X95966666Y-52880952D01*
X95966666Y-53023809D01*
X96014285Y-53214285D01*
X96061904Y-53309523D01*
X96157142Y-53404761D01*
X96300000Y-53452380D01*
X96538095Y-53452380D01*
X95109523Y-52785714D02*
X95109523Y-53452380D01*
X95347619Y-52404761D02*
X95585714Y-53119047D01*
X94966666Y-53119047D01*
%TO.C,D11*%
X73802380Y-20235714D02*
X72802380Y-20235714D01*
X72802380Y-20473809D01*
X72850000Y-20616666D01*
X72945238Y-20711904D01*
X73040476Y-20759523D01*
X73230952Y-20807142D01*
X73373809Y-20807142D01*
X73564285Y-20759523D01*
X73659523Y-20711904D01*
X73754761Y-20616666D01*
X73802380Y-20473809D01*
X73802380Y-20235714D01*
X73802380Y-21759523D02*
X73802380Y-21188095D01*
X73802380Y-21473809D02*
X72802380Y-21473809D01*
X72945238Y-21378571D01*
X73040476Y-21283333D01*
X73088095Y-21188095D01*
X73802380Y-22711904D02*
X73802380Y-22140476D01*
X73802380Y-22426190D02*
X72802380Y-22426190D01*
X72945238Y-22330952D01*
X73040476Y-22235714D01*
X73088095Y-22140476D01*
X64564285Y-24627380D02*
X65135714Y-24627380D01*
X64850000Y-24627380D02*
X64850000Y-23627380D01*
X64945238Y-23770238D01*
X65040476Y-23865476D01*
X65135714Y-23913095D01*
D11*
%TO.C,IC1*%
X56839761Y-39274523D02*
X56839761Y-38004523D01*
X55509285Y-39153571D02*
X55569761Y-39214047D01*
X55751190Y-39274523D01*
X55872142Y-39274523D01*
X56053571Y-39214047D01*
X56174523Y-39093095D01*
X56235000Y-38972142D01*
X56295476Y-38730238D01*
X56295476Y-38548809D01*
X56235000Y-38306904D01*
X56174523Y-38185952D01*
X56053571Y-38065000D01*
X55872142Y-38004523D01*
X55751190Y-38004523D01*
X55569761Y-38065000D01*
X55509285Y-38125476D01*
X54299761Y-39274523D02*
X55025476Y-39274523D01*
X54662619Y-39274523D02*
X54662619Y-38004523D01*
X54783571Y-38185952D01*
X54904523Y-38306904D01*
X55025476Y-38367380D01*
D10*
%TO.C,D5*%
X58588095Y-72702380D02*
X58588095Y-71702380D01*
X58350000Y-71702380D01*
X58207142Y-71750000D01*
X58111904Y-71845238D01*
X58064285Y-71940476D01*
X58016666Y-72130952D01*
X58016666Y-72273809D01*
X58064285Y-72464285D01*
X58111904Y-72559523D01*
X58207142Y-72654761D01*
X58350000Y-72702380D01*
X58588095Y-72702380D01*
X57111904Y-71702380D02*
X57588095Y-71702380D01*
X57635714Y-72178571D01*
X57588095Y-72130952D01*
X57492857Y-72083333D01*
X57254761Y-72083333D01*
X57159523Y-72130952D01*
X57111904Y-72178571D01*
X57064285Y-72273809D01*
X57064285Y-72511904D01*
X57111904Y-72607142D01*
X57159523Y-72654761D01*
X57254761Y-72702380D01*
X57492857Y-72702380D01*
X57588095Y-72654761D01*
X57635714Y-72607142D01*
D12*
%TO.C,D10*%
X95650000Y-88250000D02*
X95100000Y-88250000D01*
X96050000Y-87650000D02*
X95250000Y-87650000D01*
X95650000Y-88650000D02*
X95650000Y-88250000D01*
X95250000Y-87650000D02*
X95650000Y-88250000D01*
D13*
X96650000Y-90150000D02*
X96650000Y-86250000D01*
D12*
X95650000Y-88250000D02*
X96200000Y-88250000D01*
X95650000Y-87650000D02*
X95650000Y-87150000D01*
X95650000Y-88250000D02*
X96050000Y-87650000D01*
D13*
X96650000Y-90150000D02*
X94650000Y-90150000D01*
X94650000Y-90150000D02*
X94650000Y-86250000D01*
%TO.C,C14*%
X98253733Y-54440000D02*
X98546267Y-54440000D01*
X98253733Y-55460000D02*
X98546267Y-55460000D01*
%TO.C,D13*%
X72700000Y-100900000D02*
X65400000Y-100900000D01*
X65400000Y-100900000D02*
X65400000Y-99750000D01*
X72700000Y-95400000D02*
X65400000Y-95400000D01*
D12*
%TO.C,D9*%
X76800000Y-88300000D02*
X77200000Y-87700000D01*
D13*
X77800000Y-90200000D02*
X75800000Y-90200000D01*
D12*
X76800000Y-87700000D02*
X76800000Y-87200000D01*
D13*
X77800000Y-90200000D02*
X77800000Y-86300000D01*
D12*
X77200000Y-87700000D02*
X76400000Y-87700000D01*
X76800000Y-88300000D02*
X77350000Y-88300000D01*
X76800000Y-88300000D02*
X76250000Y-88300000D01*
X76400000Y-87700000D02*
X76800000Y-88300000D01*
D13*
X75800000Y-90200000D02*
X75800000Y-86300000D01*
D12*
X76800000Y-88700000D02*
X76800000Y-88300000D01*
D13*
%TO.C,D12*%
X37200000Y-63150000D02*
X37200000Y-55850000D01*
X37200000Y-55850000D02*
X38350000Y-55850000D01*
X42700000Y-63150000D02*
X42700000Y-55850000D01*
%TO.C,D2*%
X56800000Y-51950000D02*
X56800000Y-48050000D01*
X58800000Y-51950000D02*
X56800000Y-51950000D01*
D12*
X58200000Y-49450000D02*
X57400000Y-49450000D01*
X57800000Y-50450000D02*
X57800000Y-50050000D01*
X57800000Y-49450000D02*
X57800000Y-48950000D01*
X57800000Y-50050000D02*
X58200000Y-49450000D01*
D13*
X58800000Y-51950000D02*
X58800000Y-48050000D01*
D12*
X57800000Y-50050000D02*
X57250000Y-50050000D01*
X57400000Y-49450000D02*
X57800000Y-50050000D01*
X57800000Y-50050000D02*
X58350000Y-50050000D01*
D13*
%TO.C,D7*%
X96750000Y-71450000D02*
X96750000Y-67550000D01*
D12*
X96150000Y-68950000D02*
X95350000Y-68950000D01*
X95750000Y-69550000D02*
X96300000Y-69550000D01*
X95750000Y-69950000D02*
X95750000Y-69550000D01*
X95750000Y-69550000D02*
X96150000Y-68950000D01*
D13*
X94750000Y-71450000D02*
X94750000Y-67550000D01*
D12*
X95750000Y-68950000D02*
X95750000Y-68450000D01*
X95750000Y-69550000D02*
X95200000Y-69550000D01*
X95350000Y-68950000D02*
X95750000Y-69550000D01*
D13*
X96750000Y-71450000D02*
X94750000Y-71450000D01*
%TO.C,R8*%
X72604724Y-25972500D02*
X72095276Y-25972500D01*
X72604724Y-24927500D02*
X72095276Y-24927500D01*
D14*
%TO.C,L1*%
X67200000Y-26450000D02*
X67200000Y-27050000D01*
X67200000Y-27050000D02*
X70100000Y-27050000D01*
X70100000Y-27050000D02*
X70100000Y-26450000D01*
X67050000Y-24900000D02*
X67050000Y-26100000D01*
X70100000Y-26450000D02*
X67200000Y-26450000D01*
D13*
%TO.C,C13*%
X74110000Y-97553733D02*
X74110000Y-97846267D01*
X73090000Y-97553733D02*
X73090000Y-97846267D01*
%TO.C,D14*%
X101800000Y-55850000D02*
X101800000Y-63150000D01*
X101800000Y-63150000D02*
X100650000Y-63150000D01*
X96300000Y-55850000D02*
X96300000Y-63150000D01*
%TO.C,R6*%
X65294724Y-25882500D02*
X64785276Y-25882500D01*
X65294724Y-24837500D02*
X64785276Y-24837500D01*
%TO.C,G\u002A\u002A\u002A*%
G36*
X68976422Y-34153953D02*
G01*
X68982702Y-34164577D01*
X68987470Y-34187609D01*
X68991015Y-34226567D01*
X68993628Y-34284972D01*
X68995599Y-34366344D01*
X68997219Y-34474201D01*
X68997604Y-34508365D01*
X68998180Y-34601810D01*
X68998002Y-34684079D01*
X68997121Y-34750465D01*
X68995590Y-34796263D01*
X68993460Y-34816766D01*
X68988008Y-34825177D01*
X68966897Y-34830889D01*
X68961085Y-34823095D01*
X68956017Y-34799216D01*
X68952344Y-34756619D01*
X68949912Y-34692484D01*
X68948566Y-34603993D01*
X68948151Y-34488325D01*
X68948362Y-34382837D01*
X68949187Y-34297847D01*
X68950859Y-34236091D01*
X68953609Y-34194100D01*
X68957671Y-34168402D01*
X68963275Y-34155528D01*
X68970655Y-34152008D01*
X68976422Y-34153953D01*
G37*
G36*
X61830286Y-34287676D02*
G01*
X61834734Y-34295377D01*
X61840448Y-34327932D01*
X61843671Y-34378138D01*
X61844502Y-34438224D01*
X61843045Y-34500416D01*
X61839398Y-34556942D01*
X61833664Y-34600030D01*
X61825943Y-34621907D01*
X61815275Y-34628946D01*
X61800071Y-34619831D01*
X61790584Y-34583997D01*
X61787173Y-34523274D01*
X61790197Y-34439496D01*
X61794244Y-34385263D01*
X61800352Y-34329751D01*
X61807704Y-34297599D01*
X61817337Y-34284882D01*
X61830286Y-34287676D01*
G37*
G36*
X62944613Y-32457918D02*
G01*
X62912057Y-32457245D01*
X62908481Y-32456558D01*
X62864954Y-32454479D01*
X62800150Y-32457904D01*
X62721203Y-32465985D01*
X62635249Y-32477874D01*
X62549424Y-32492723D01*
X62470865Y-32509683D01*
X62353400Y-32543221D01*
X62155169Y-32623177D01*
X61963684Y-32731129D01*
X61777961Y-32867669D01*
X61597017Y-33033384D01*
X61591176Y-33039254D01*
X61538669Y-33089979D01*
X61492346Y-33131310D01*
X61457037Y-33159127D01*
X61437572Y-33169315D01*
X61412860Y-33165005D01*
X61394169Y-33147449D01*
X61384054Y-33112532D01*
X61381427Y-33056197D01*
X61383089Y-33020132D01*
X61470364Y-33020132D01*
X61471522Y-33032476D01*
X61476109Y-33028503D01*
X61497454Y-33006998D01*
X61531724Y-32971164D01*
X61574199Y-32925898D01*
X61716390Y-32789290D01*
X61889428Y-32660387D01*
X62075425Y-32558530D01*
X62274143Y-32483824D01*
X62485347Y-32436377D01*
X62708798Y-32416295D01*
X62875707Y-32411666D01*
X62823236Y-32353330D01*
X62807998Y-32336677D01*
X62676098Y-32210834D01*
X62520518Y-32090257D01*
X62346852Y-31979336D01*
X62303952Y-31955833D01*
X62239196Y-31923097D01*
X62166255Y-31888312D01*
X62090962Y-31854061D01*
X62019153Y-31822926D01*
X61956663Y-31797489D01*
X61909328Y-31780333D01*
X61882983Y-31774040D01*
X61877464Y-31777332D01*
X61858917Y-31802451D01*
X61832330Y-31848410D01*
X61799897Y-31910553D01*
X61763814Y-31984226D01*
X61726274Y-32064776D01*
X61689472Y-32147548D01*
X61655603Y-32227888D01*
X61626861Y-32301143D01*
X61605440Y-32362657D01*
X61592419Y-32406302D01*
X61565330Y-32508735D01*
X61537929Y-32625249D01*
X61512474Y-32745470D01*
X61491223Y-32859020D01*
X61476433Y-32955523D01*
X61472881Y-32986452D01*
X61470364Y-33020132D01*
X61383089Y-33020132D01*
X61385197Y-32974386D01*
X61397748Y-32835641D01*
X61436288Y-32586373D01*
X61493721Y-32353398D01*
X61569117Y-32140919D01*
X61572900Y-32132034D01*
X61608274Y-32057888D01*
X61652447Y-31976621D01*
X61701151Y-31895108D01*
X61750118Y-31820225D01*
X61795078Y-31758849D01*
X61831763Y-31717854D01*
X61836334Y-31713688D01*
X61856981Y-31697500D01*
X61877619Y-31691585D01*
X61907904Y-31695136D01*
X61957493Y-31707344D01*
X62023467Y-31727220D01*
X62162244Y-31783575D01*
X62308036Y-31859811D01*
X62454839Y-31952309D01*
X62596654Y-32057451D01*
X62727477Y-32171619D01*
X62766390Y-32209180D01*
X62846071Y-32290327D01*
X62904163Y-32356439D01*
X62940237Y-32406851D01*
X62942164Y-32411666D01*
X62953863Y-32440899D01*
X62944613Y-32457918D01*
G37*
G36*
X62131404Y-33866866D02*
G01*
X62141699Y-33889970D01*
X62149512Y-33937534D01*
X62150266Y-33945149D01*
X62152579Y-33987535D01*
X62154537Y-34052591D01*
X62156141Y-34136266D01*
X62157388Y-34234509D01*
X62158276Y-34343267D01*
X62158805Y-34458488D01*
X62158974Y-34576120D01*
X62158779Y-34692112D01*
X62158221Y-34802412D01*
X62157298Y-34902967D01*
X62156008Y-34989727D01*
X62154351Y-35058638D01*
X62152323Y-35105650D01*
X62149925Y-35126710D01*
X62141520Y-35138696D01*
X62116169Y-35146485D01*
X62115242Y-35146268D01*
X62109441Y-35142207D01*
X62104674Y-35131799D01*
X62100842Y-35112414D01*
X62097845Y-35081424D01*
X62095583Y-35036201D01*
X62093955Y-34974116D01*
X62092863Y-34892539D01*
X62092207Y-34788843D01*
X62091886Y-34660399D01*
X62091801Y-34504578D01*
X62091802Y-34490494D01*
X62091906Y-34336937D01*
X62092260Y-34210546D01*
X62092962Y-34108698D01*
X62094111Y-34028771D01*
X62095804Y-33968144D01*
X62098140Y-33924194D01*
X62101218Y-33894299D01*
X62105136Y-33875837D01*
X62109993Y-33866187D01*
X62115886Y-33862725D01*
X62116134Y-33862678D01*
X62131404Y-33866866D01*
G37*
G36*
X63710049Y-32809332D02*
G01*
X63719622Y-32835439D01*
X63718136Y-32845308D01*
X63710395Y-32851256D01*
X63691782Y-32852170D01*
X63657684Y-32847717D01*
X63603489Y-32837564D01*
X63524583Y-32821380D01*
X63522674Y-32820985D01*
X63418722Y-32804589D01*
X63296130Y-32793273D01*
X63162921Y-32787097D01*
X63027120Y-32786123D01*
X62896753Y-32790412D01*
X62779844Y-32800023D01*
X62684418Y-32815018D01*
X62510916Y-32859215D01*
X62279652Y-32942070D01*
X62066718Y-33048492D01*
X61871704Y-33178695D01*
X61694202Y-33332893D01*
X61571027Y-33464411D01*
X61447366Y-33623088D01*
X61346708Y-33784744D01*
X61271105Y-33946026D01*
X61222609Y-34103579D01*
X61217567Y-34122565D01*
X61205870Y-34136595D01*
X61183729Y-34129293D01*
X61174843Y-34123338D01*
X61144146Y-34083268D01*
X61115391Y-34014797D01*
X61088875Y-33919146D01*
X61064896Y-33797539D01*
X61043752Y-33651197D01*
X61025742Y-33481343D01*
X61019115Y-33405911D01*
X61010184Y-33290078D01*
X61008258Y-33252641D01*
X61115409Y-33252641D01*
X61120336Y-33382425D01*
X61130480Y-33516195D01*
X61145357Y-33645511D01*
X61164484Y-33761932D01*
X61167605Y-33777544D01*
X61179715Y-33833893D01*
X61190367Y-33877496D01*
X61197552Y-33899976D01*
X61199521Y-33901553D01*
X61213264Y-33890855D01*
X61235402Y-33858812D01*
X61262657Y-33809958D01*
X61358615Y-33642400D01*
X61481187Y-33472284D01*
X61626611Y-33311252D01*
X61635053Y-33302828D01*
X61823774Y-33135781D01*
X62028978Y-32991910D01*
X62247844Y-32872561D01*
X62477554Y-32779081D01*
X62715286Y-32712819D01*
X62958222Y-32675120D01*
X62993066Y-32672359D01*
X63096861Y-32668804D01*
X63206248Y-32670703D01*
X63312379Y-32677561D01*
X63406404Y-32688886D01*
X63479476Y-32704183D01*
X63487052Y-32706344D01*
X63520554Y-32715507D01*
X63536613Y-32719226D01*
X63537015Y-32714408D01*
X63522610Y-32691663D01*
X63493439Y-32653900D01*
X63452974Y-32605170D01*
X63404685Y-32549528D01*
X63352042Y-32491027D01*
X63298516Y-32433720D01*
X63247578Y-32381660D01*
X63097656Y-32239107D01*
X62944346Y-32106720D01*
X62785161Y-31983433D01*
X62615441Y-31866025D01*
X62430525Y-31751275D01*
X62225754Y-31635962D01*
X61996466Y-31516863D01*
X61676087Y-31355995D01*
X61566760Y-31583771D01*
X61563424Y-31590732D01*
X61429523Y-31890455D01*
X61320049Y-32180216D01*
X61233490Y-32464969D01*
X61168337Y-32749669D01*
X61123080Y-33039270D01*
X61116182Y-33135281D01*
X61115409Y-33252641D01*
X61008258Y-33252641D01*
X61005243Y-33194015D01*
X61004493Y-33111296D01*
X61008132Y-33035491D01*
X61016362Y-32960172D01*
X61029382Y-32878909D01*
X61047391Y-32785275D01*
X61071167Y-32675071D01*
X61130393Y-32444829D01*
X61201036Y-32218123D01*
X61281073Y-32000241D01*
X61368481Y-31796472D01*
X61461236Y-31612105D01*
X61557315Y-31452426D01*
X61565079Y-31440769D01*
X61600532Y-31387207D01*
X61631070Y-31340586D01*
X61650796Y-31309898D01*
X61658144Y-31299465D01*
X61680771Y-31280574D01*
X61711620Y-31273582D01*
X61754187Y-31279206D01*
X61811967Y-31298164D01*
X61888456Y-31331173D01*
X61987151Y-31378952D01*
X62029868Y-31400535D01*
X62323543Y-31562730D01*
X62607745Y-31743530D01*
X62877410Y-31939291D01*
X63127472Y-32146371D01*
X63352866Y-32361127D01*
X63408152Y-32420061D01*
X63471486Y-32491833D01*
X63533902Y-32566394D01*
X63592184Y-32639585D01*
X63643113Y-32707245D01*
X63648100Y-32714408D01*
X63683473Y-32765214D01*
X63710049Y-32809332D01*
G37*
G36*
X69172548Y-33864628D02*
G01*
X69176939Y-33867840D01*
X69181897Y-33877857D01*
X69185912Y-33896837D01*
X69189083Y-33927410D01*
X69191503Y-33972207D01*
X69193269Y-34033858D01*
X69194476Y-34114993D01*
X69195219Y-34218243D01*
X69195596Y-34346237D01*
X69195700Y-34501606D01*
X69195640Y-34570420D01*
X69195185Y-34700546D01*
X69194326Y-34819689D01*
X69193112Y-34924680D01*
X69191592Y-35012347D01*
X69189817Y-35079521D01*
X69187835Y-35123029D01*
X69185698Y-35139703D01*
X69169765Y-35149189D01*
X69144396Y-35143126D01*
X69127391Y-35114369D01*
X69126659Y-35109933D01*
X69124698Y-35078047D01*
X69123285Y-35022153D01*
X69122385Y-34946111D01*
X69121964Y-34853778D01*
X69121985Y-34749013D01*
X69122413Y-34635673D01*
X69123214Y-34517616D01*
X69124352Y-34398701D01*
X69125791Y-34282785D01*
X69127497Y-34173727D01*
X69129435Y-34075385D01*
X69131568Y-33991616D01*
X69133862Y-33926279D01*
X69136282Y-33883232D01*
X69138792Y-33866333D01*
X69146698Y-33862359D01*
X69172548Y-33864628D01*
G37*
G36*
X62451225Y-34374728D02*
G01*
X62451234Y-34374732D01*
X62464917Y-34394125D01*
X62472921Y-34432979D01*
X62474846Y-34481221D01*
X62470288Y-34528777D01*
X62458846Y-34565576D01*
X62454778Y-34572650D01*
X62434903Y-34592094D01*
X62418042Y-34585926D01*
X62405966Y-34557815D01*
X62400447Y-34511429D01*
X62403253Y-34450434D01*
X62407786Y-34415921D01*
X62416396Y-34382667D01*
X62429751Y-34370711D01*
X62451225Y-34374728D01*
G37*
G36*
X62315111Y-34153953D02*
G01*
X62321391Y-34164577D01*
X62326158Y-34187609D01*
X62329704Y-34226567D01*
X62332317Y-34284972D01*
X62334288Y-34366344D01*
X62335908Y-34474201D01*
X62336293Y-34508365D01*
X62336869Y-34601810D01*
X62336691Y-34684079D01*
X62335810Y-34750465D01*
X62334279Y-34796263D01*
X62332149Y-34816766D01*
X62326696Y-34825177D01*
X62305586Y-34830889D01*
X62299774Y-34823095D01*
X62294706Y-34799216D01*
X62291033Y-34756619D01*
X62288601Y-34692484D01*
X62287254Y-34603993D01*
X62286840Y-34488325D01*
X62287051Y-34382837D01*
X62287876Y-34297847D01*
X62289547Y-34236091D01*
X62292298Y-34194100D01*
X62296359Y-34168402D01*
X62301964Y-34155528D01*
X62309344Y-34152008D01*
X62315111Y-34153953D01*
G37*
G36*
X71692105Y-35837631D02*
G01*
X71690402Y-35929655D01*
X71686521Y-36001906D01*
X71679535Y-36062979D01*
X71668520Y-36121465D01*
X71652550Y-36185956D01*
X71621126Y-36287988D01*
X71551743Y-36452024D01*
X71464285Y-36602079D01*
X71361458Y-36734371D01*
X71245964Y-36845115D01*
X71120507Y-36930528D01*
X71075818Y-36953274D01*
X71035113Y-36970181D01*
X71011057Y-36975537D01*
X71008409Y-36974146D01*
X70991423Y-36953153D01*
X70963847Y-36909707D01*
X70927715Y-36847287D01*
X70885064Y-36769375D01*
X70837927Y-36679449D01*
X70835221Y-36674191D01*
X70782133Y-36573727D01*
X70725008Y-36469950D01*
X70668161Y-36370421D01*
X70615908Y-36282703D01*
X70572562Y-36214358D01*
X70519684Y-36137608D01*
X70432514Y-36018058D01*
X70334665Y-35890140D01*
X70232113Y-35761465D01*
X70130835Y-35639642D01*
X70036809Y-35532280D01*
X70002374Y-35493423D01*
X69961235Y-35444514D01*
X69930901Y-35405445D01*
X69916221Y-35382251D01*
X69914921Y-35378303D01*
X69915768Y-35337140D01*
X69919803Y-35324037D01*
X70002699Y-35324037D01*
X70015274Y-35345799D01*
X70046357Y-35376933D01*
X70055585Y-35386292D01*
X70091123Y-35426781D01*
X70139352Y-35485830D01*
X70196958Y-35559047D01*
X70260630Y-35642038D01*
X70327052Y-35730412D01*
X70392912Y-35819776D01*
X70454896Y-35905737D01*
X70509690Y-35983903D01*
X70553983Y-36049882D01*
X70575871Y-36083963D01*
X70631615Y-36173199D01*
X70693034Y-36274221D01*
X70756503Y-36380843D01*
X70818395Y-36486879D01*
X70875083Y-36586143D01*
X70922941Y-36672448D01*
X70958340Y-36739608D01*
X70964857Y-36752354D01*
X70990897Y-36799510D01*
X71012260Y-36832572D01*
X71024844Y-36845039D01*
X71032422Y-36840837D01*
X71057747Y-36818911D01*
X71094958Y-36782460D01*
X71139035Y-36736267D01*
X71144931Y-36729880D01*
X71271836Y-36578183D01*
X71370777Y-36427926D01*
X71443240Y-36275285D01*
X71490710Y-36116437D01*
X71514675Y-35947558D01*
X71516620Y-35764826D01*
X71498476Y-35582213D01*
X71458068Y-35407973D01*
X71393560Y-35242645D01*
X71302793Y-35079312D01*
X71278574Y-35042530D01*
X71154680Y-34886790D01*
X71010632Y-34751794D01*
X70849143Y-34639218D01*
X70672927Y-34550734D01*
X70484696Y-34488018D01*
X70287165Y-34452742D01*
X70185895Y-34442178D01*
X70185570Y-34552143D01*
X70185556Y-34554442D01*
X70179904Y-34631930D01*
X70165230Y-34729892D01*
X70143241Y-34841063D01*
X70115646Y-34958178D01*
X70084151Y-35073971D01*
X70050464Y-35181177D01*
X70016291Y-35272531D01*
X70005380Y-35300359D01*
X70002699Y-35324037D01*
X69919803Y-35324037D01*
X69934217Y-35277230D01*
X69948815Y-35240386D01*
X69999897Y-35107434D01*
X70039774Y-34994874D01*
X70069808Y-34897340D01*
X70091361Y-34809470D01*
X70105794Y-34725898D01*
X70114469Y-34641260D01*
X70118746Y-34550193D01*
X70121267Y-34466335D01*
X70126482Y-34403143D01*
X70138396Y-34361712D01*
X70161153Y-34337827D01*
X70198897Y-34327272D01*
X70255772Y-34325833D01*
X70335924Y-34329293D01*
X70377023Y-34331978D01*
X70565644Y-34361988D01*
X70749435Y-34419271D01*
X70925257Y-34501595D01*
X71089970Y-34606725D01*
X71240436Y-34732430D01*
X71373514Y-34876475D01*
X71486066Y-35036629D01*
X71574953Y-35210657D01*
X71618460Y-35321475D01*
X71654485Y-35437882D01*
X71677460Y-35552435D01*
X71689384Y-35675473D01*
X71691194Y-35764826D01*
X71692258Y-35817336D01*
X71692105Y-35837631D01*
G37*
G36*
X68860540Y-34374458D02*
G01*
X68866902Y-34388558D01*
X68873862Y-34425776D01*
X68878063Y-34473579D01*
X68878633Y-34520780D01*
X68874701Y-34556195D01*
X68867578Y-34577383D01*
X68852151Y-34594762D01*
X68835663Y-34588134D01*
X68820693Y-34561086D01*
X68809820Y-34517207D01*
X68805623Y-34460084D01*
X68806496Y-34429660D01*
X68813528Y-34391410D01*
X68828774Y-34374728D01*
X68841001Y-34371521D01*
X68860540Y-34374458D01*
G37*
G36*
X69895032Y-33125759D02*
G01*
X69886120Y-33146468D01*
X69884908Y-33147905D01*
X69864099Y-33164312D01*
X69839551Y-33165157D01*
X69807458Y-33148515D01*
X69764018Y-33112464D01*
X69705425Y-33055077D01*
X69580358Y-32935455D01*
X69394906Y-32785902D01*
X69205067Y-32665402D01*
X69010067Y-32573486D01*
X68809135Y-32509683D01*
X68799991Y-32507485D01*
X68720138Y-32490741D01*
X68633909Y-32476215D01*
X68548439Y-32464754D01*
X68470864Y-32457207D01*
X68408320Y-32454421D01*
X68367943Y-32457245D01*
X68351712Y-32459706D01*
X68328788Y-32453026D01*
X68328993Y-32428927D01*
X68338671Y-32411666D01*
X68404293Y-32411666D01*
X68571201Y-32416295D01*
X68733462Y-32427433D01*
X68937873Y-32463537D01*
X69128958Y-32524854D01*
X69309905Y-32612473D01*
X69483906Y-32727480D01*
X69505184Y-32743865D01*
X69576984Y-32803168D01*
X69649879Y-32868226D01*
X69710959Y-32927659D01*
X69813636Y-33034287D01*
X69803566Y-32955522D01*
X69796938Y-32908868D01*
X69778557Y-32802337D01*
X69754871Y-32684075D01*
X69728137Y-32564456D01*
X69700614Y-32453858D01*
X69674559Y-32362657D01*
X69665040Y-32334056D01*
X69639731Y-32266165D01*
X69608185Y-32188832D01*
X69572594Y-32106710D01*
X69535154Y-32024453D01*
X69498058Y-31946715D01*
X69463503Y-31878151D01*
X69433681Y-31823414D01*
X69410787Y-31787160D01*
X69397017Y-31774040D01*
X69377131Y-31778324D01*
X69333143Y-31793715D01*
X69272950Y-31817852D01*
X69202388Y-31848152D01*
X69127292Y-31882033D01*
X69053496Y-31916913D01*
X68986837Y-31950208D01*
X68933148Y-31979336D01*
X68909556Y-31993168D01*
X68737941Y-32105604D01*
X68585147Y-32227122D01*
X68456764Y-32353330D01*
X68404293Y-32411666D01*
X68338671Y-32411666D01*
X68351899Y-32388072D01*
X68397075Y-32331126D01*
X68464093Y-32258753D01*
X68552523Y-32171619D01*
X68617321Y-32112644D01*
X68754485Y-32002615D01*
X68899587Y-31903452D01*
X69046626Y-31818773D01*
X69189599Y-31752198D01*
X69322507Y-31707344D01*
X69333531Y-31704482D01*
X69378839Y-31693807D01*
X69406621Y-31691940D01*
X69426535Y-31699686D01*
X69448237Y-31717854D01*
X69452450Y-31721850D01*
X69490471Y-31765927D01*
X69536204Y-31829479D01*
X69585381Y-31905630D01*
X69633732Y-31987505D01*
X69676989Y-32068226D01*
X69710883Y-32140919D01*
X69753443Y-32251918D01*
X69819333Y-32475898D01*
X69866762Y-32718122D01*
X69894803Y-32974386D01*
X69897998Y-33028926D01*
X69898081Y-33034287D01*
X69898911Y-33088175D01*
X69895032Y-33125759D01*
G37*
G36*
X69471332Y-34291427D02*
G01*
X69472836Y-34294513D01*
X69479702Y-34324857D01*
X69485644Y-34374429D01*
X69490118Y-34434318D01*
X69492582Y-34495610D01*
X69492494Y-34549394D01*
X69489310Y-34586759D01*
X69482277Y-34617005D01*
X69472462Y-34630919D01*
X69457365Y-34623866D01*
X69448168Y-34610264D01*
X69440876Y-34579318D01*
X69436931Y-34527834D01*
X69435747Y-34451116D01*
X69436021Y-34418030D01*
X69439467Y-34345489D01*
X69446666Y-34299467D01*
X69457370Y-34281075D01*
X69471332Y-34291427D01*
G37*
G36*
X61953523Y-34152983D02*
G01*
X61960422Y-34161809D01*
X61965829Y-34182781D01*
X61970098Y-34219472D01*
X61973581Y-34275452D01*
X61976628Y-34354294D01*
X61979594Y-34459569D01*
X61979713Y-34464325D01*
X61981503Y-34564013D01*
X61981710Y-34650177D01*
X61980410Y-34718702D01*
X61977679Y-34765475D01*
X61973591Y-34786383D01*
X61970298Y-34790803D01*
X61956672Y-34803633D01*
X61946132Y-34801148D01*
X61938312Y-34780902D01*
X61932849Y-34740449D01*
X61929377Y-34677342D01*
X61927531Y-34589135D01*
X61926949Y-34473382D01*
X61927048Y-34386745D01*
X61927749Y-34300246D01*
X61929323Y-34237425D01*
X61932017Y-34194737D01*
X61936075Y-34168635D01*
X61941745Y-34155574D01*
X61949273Y-34152008D01*
X61953523Y-34152983D01*
G37*
G36*
X70254257Y-33481343D02*
G01*
X70247908Y-33547401D01*
X70229264Y-33703768D01*
X70207678Y-33838491D01*
X70183549Y-33949901D01*
X70157277Y-34036327D01*
X70129260Y-34096101D01*
X70099896Y-34127553D01*
X70084007Y-34135268D01*
X70069517Y-34138151D01*
X70065249Y-34126994D01*
X70055390Y-34093782D01*
X70042728Y-34046956D01*
X70040368Y-34038107D01*
X69991568Y-33901997D01*
X69918663Y-33758657D01*
X69824700Y-33612850D01*
X69712729Y-33469341D01*
X69585798Y-33332893D01*
X69463016Y-33222136D01*
X69273264Y-33084803D01*
X69065714Y-32971315D01*
X68839956Y-32881458D01*
X68595582Y-32815018D01*
X68593867Y-32814650D01*
X68497912Y-32799768D01*
X68380641Y-32790268D01*
X68250079Y-32786090D01*
X68114250Y-32787173D01*
X67981181Y-32793456D01*
X67858894Y-32804879D01*
X67755416Y-32821380D01*
X67680582Y-32836751D01*
X67625008Y-32847263D01*
X67589813Y-32852055D01*
X67570385Y-32851460D01*
X67562111Y-32845811D01*
X67560378Y-32835439D01*
X67568221Y-32812731D01*
X67593282Y-32770184D01*
X67628412Y-32719226D01*
X67743386Y-32719226D01*
X67744608Y-32719071D01*
X67764949Y-32714059D01*
X67800524Y-32704183D01*
X67819325Y-32699795D01*
X67869922Y-32691155D01*
X67935527Y-32682291D01*
X68006716Y-32674558D01*
X68011611Y-32674102D01*
X68221326Y-32668808D01*
X68438838Y-32689619D01*
X68659260Y-32735522D01*
X68877706Y-32805506D01*
X69089290Y-32898561D01*
X69140148Y-32925460D01*
X69280104Y-33010840D01*
X69420855Y-33111672D01*
X69556552Y-33222958D01*
X69681345Y-33339703D01*
X69789384Y-33456909D01*
X69874821Y-33569580D01*
X69880873Y-33578776D01*
X69924743Y-33648719D01*
X69971503Y-33727659D01*
X70012004Y-33800213D01*
X70039854Y-33850644D01*
X70063480Y-33887774D01*
X70078247Y-33901794D01*
X70085984Y-33895046D01*
X70086788Y-33892303D01*
X70110515Y-33792337D01*
X70130829Y-33671123D01*
X70147036Y-33537030D01*
X70158442Y-33398429D01*
X70164354Y-33263689D01*
X70164078Y-33141179D01*
X70156920Y-33039270D01*
X70156102Y-33032603D01*
X70110409Y-32743168D01*
X70044787Y-32458522D01*
X69957725Y-32173710D01*
X69847713Y-31883778D01*
X69713240Y-31583771D01*
X69603912Y-31355995D01*
X69283533Y-31516863D01*
X69057319Y-31634304D01*
X68852233Y-31749649D01*
X68667068Y-31864384D01*
X68497165Y-31981732D01*
X68337863Y-32104913D01*
X68184502Y-32237148D01*
X68032421Y-32381660D01*
X67998286Y-32416240D01*
X67945212Y-32472304D01*
X67891908Y-32530863D01*
X67841842Y-32587865D01*
X67798487Y-32639256D01*
X67765312Y-32680982D01*
X67745788Y-32708990D01*
X67743386Y-32719226D01*
X67628412Y-32719226D01*
X67632442Y-32713380D01*
X67682484Y-32646481D01*
X67740191Y-32573646D01*
X67802346Y-32499035D01*
X67865732Y-32426809D01*
X67927134Y-32361127D01*
X67957838Y-32329907D01*
X68187091Y-32116031D01*
X68440285Y-31910355D01*
X68712352Y-31716521D01*
X68998229Y-31538172D01*
X69292849Y-31378952D01*
X69334189Y-31358523D01*
X69423811Y-31316587D01*
X69492591Y-31289141D01*
X69544024Y-31275467D01*
X69581607Y-31274847D01*
X69608835Y-31286563D01*
X69629204Y-31309898D01*
X69632267Y-31314748D01*
X69654839Y-31349656D01*
X69686944Y-31398545D01*
X69722685Y-31452426D01*
X69769083Y-31525645D01*
X69863819Y-31697833D01*
X69954260Y-31892172D01*
X70038383Y-32103373D01*
X70114164Y-32326150D01*
X70179580Y-32555213D01*
X70232609Y-32785275D01*
X70243263Y-32839313D01*
X70258470Y-32925266D01*
X70268798Y-33002427D01*
X70274447Y-33077223D01*
X70275618Y-33156084D01*
X70272510Y-33245439D01*
X70271276Y-33263689D01*
X70265323Y-33351716D01*
X70254257Y-33481343D01*
G37*
G36*
X69336237Y-34153684D02*
G01*
X69342522Y-34163661D01*
X69347132Y-34185775D01*
X69350331Y-34223599D01*
X69352386Y-34280708D01*
X69353560Y-34360674D01*
X69354119Y-34467070D01*
X69354178Y-34496526D01*
X69354037Y-34588343D01*
X69353431Y-34668532D01*
X69352427Y-34732498D01*
X69351089Y-34775647D01*
X69349483Y-34793385D01*
X69347277Y-34797052D01*
X69328332Y-34803473D01*
X69305994Y-34785883D01*
X69305200Y-34784216D01*
X69301678Y-34758838D01*
X69299358Y-34709019D01*
X69298319Y-34639425D01*
X69298642Y-34554720D01*
X69300406Y-34459569D01*
X69301945Y-34401826D01*
X69304908Y-34310611D01*
X69308136Y-34243990D01*
X69311980Y-34198391D01*
X69316791Y-34170242D01*
X69322923Y-34155971D01*
X69330726Y-34152008D01*
X69336237Y-34153684D01*
G37*
G36*
X67810725Y-32259975D02*
G01*
X67767248Y-32318633D01*
X67715185Y-32387325D01*
X67658689Y-32460645D01*
X67601910Y-32533183D01*
X67549002Y-32599533D01*
X67504117Y-32654285D01*
X67493013Y-32667702D01*
X67458532Y-32711672D01*
X67434424Y-32746031D01*
X67425351Y-32764267D01*
X67417566Y-32777632D01*
X67391595Y-32794137D01*
X67365641Y-32800981D01*
X67327832Y-32800805D01*
X67315891Y-32797841D01*
X67276171Y-32787762D01*
X67219949Y-32773356D01*
X67155298Y-32756688D01*
X67150195Y-32755394D01*
X67080076Y-32740540D01*
X66984796Y-32724283D01*
X66868725Y-32707169D01*
X66736235Y-32689748D01*
X66591695Y-32672568D01*
X66439476Y-32656178D01*
X66283948Y-32641126D01*
X66129481Y-32627960D01*
X66031435Y-32622208D01*
X65901464Y-32618295D01*
X65754177Y-32616754D01*
X65596146Y-32617468D01*
X65433943Y-32620316D01*
X65274140Y-32625180D01*
X65123308Y-32631941D01*
X64988021Y-32640479D01*
X64874849Y-32650676D01*
X64696840Y-32670750D01*
X64537225Y-32689961D01*
X64402541Y-32707692D01*
X64290234Y-32724319D01*
X64197750Y-32740224D01*
X64122535Y-32755785D01*
X64062035Y-32771382D01*
X64018044Y-32783690D01*
X63960886Y-32796639D01*
X63921439Y-32799998D01*
X63893251Y-32794658D01*
X63867096Y-32780501D01*
X63854648Y-32764155D01*
X63853861Y-32760982D01*
X63840015Y-32737523D01*
X63812468Y-32699789D01*
X63775883Y-32654285D01*
X63756254Y-32630589D01*
X63707119Y-32569766D01*
X63651893Y-32499864D01*
X63594729Y-32426289D01*
X63539779Y-32354450D01*
X63491196Y-32289755D01*
X63453131Y-32237612D01*
X63435303Y-32211563D01*
X63539348Y-32211563D01*
X63604876Y-32289110D01*
X63632856Y-32323295D01*
X63678280Y-32380983D01*
X63729289Y-32447492D01*
X63779235Y-32514240D01*
X63780265Y-32515637D01*
X63827314Y-32578205D01*
X63861186Y-32619602D01*
X63885519Y-32643395D01*
X63903950Y-32653152D01*
X63920116Y-32652441D01*
X63953177Y-32644484D01*
X64018904Y-32632269D01*
X64105518Y-32618660D01*
X64207928Y-32604397D01*
X64321041Y-32590222D01*
X64439764Y-32576874D01*
X64468072Y-32573792D01*
X64561661Y-32562559D01*
X64653052Y-32550206D01*
X64733018Y-32538028D01*
X64792333Y-32527322D01*
X64801311Y-32525650D01*
X64857217Y-32519049D01*
X64938261Y-32513407D01*
X65040505Y-32508724D01*
X65160010Y-32505000D01*
X65292839Y-32502235D01*
X65435055Y-32500428D01*
X65582720Y-32499581D01*
X65731895Y-32499693D01*
X65878644Y-32500763D01*
X66019029Y-32502792D01*
X66149111Y-32505780D01*
X66264954Y-32509727D01*
X66362619Y-32514633D01*
X66438169Y-32520498D01*
X66487667Y-32527322D01*
X66503469Y-32530439D01*
X66570247Y-32541746D01*
X66654784Y-32554118D01*
X66747856Y-32566260D01*
X66840236Y-32576874D01*
X66867192Y-32579774D01*
X66961905Y-32590581D01*
X67055350Y-32602069D01*
X67137994Y-32613035D01*
X67200307Y-32622277D01*
X67220080Y-32625548D01*
X67280947Y-32636209D01*
X67330625Y-32645755D01*
X67359883Y-32652441D01*
X67360187Y-32652529D01*
X67376363Y-32653076D01*
X67394871Y-32643089D01*
X67419349Y-32618999D01*
X67453435Y-32577239D01*
X67500765Y-32514240D01*
X67540660Y-32460785D01*
X67591984Y-32393553D01*
X67639021Y-32333467D01*
X67675124Y-32289110D01*
X67740652Y-32211563D01*
X67699274Y-32202937D01*
X67669325Y-32196886D01*
X67589921Y-32181820D01*
X67491666Y-32164066D01*
X67381467Y-32144792D01*
X67266232Y-32125169D01*
X67152867Y-32106363D01*
X67048280Y-32089544D01*
X66959378Y-32075880D01*
X66893067Y-32066540D01*
X66847285Y-32060818D01*
X66562322Y-32032009D01*
X66256808Y-32011636D01*
X65937793Y-31999698D01*
X65612327Y-31996195D01*
X65287458Y-32001128D01*
X64970236Y-32014497D01*
X64667711Y-32036301D01*
X64386933Y-32066540D01*
X64357679Y-32070506D01*
X64279429Y-32082112D01*
X64181973Y-32097468D01*
X64072219Y-32115407D01*
X63957074Y-32134760D01*
X63843445Y-32154358D01*
X63738240Y-32173032D01*
X63648364Y-32189615D01*
X63580725Y-32202937D01*
X63539348Y-32211563D01*
X63435303Y-32211563D01*
X63429736Y-32203429D01*
X63422617Y-32191273D01*
X63414077Y-32167205D01*
X63419194Y-32147194D01*
X63441110Y-32129189D01*
X63482963Y-32111139D01*
X63547894Y-32090993D01*
X63639043Y-32066698D01*
X63646604Y-32064767D01*
X63784412Y-32033254D01*
X63940106Y-32004331D01*
X64116715Y-31977537D01*
X64317265Y-31952409D01*
X64544784Y-31928487D01*
X64644726Y-31920745D01*
X64771137Y-31914133D01*
X64918996Y-31908723D01*
X65084015Y-31904513D01*
X65261910Y-31901505D01*
X65448395Y-31899698D01*
X65639184Y-31899092D01*
X65829991Y-31899688D01*
X66016530Y-31901484D01*
X66194517Y-31904482D01*
X66359664Y-31908682D01*
X66507687Y-31914082D01*
X66634299Y-31920684D01*
X66735215Y-31928487D01*
X66749300Y-31929859D01*
X66975161Y-31953839D01*
X67174229Y-31979051D01*
X67349533Y-32005957D01*
X67504100Y-32035019D01*
X67640956Y-32066698D01*
X67683716Y-32077825D01*
X67763164Y-32100077D01*
X67817749Y-32119067D01*
X67850611Y-32136846D01*
X67864891Y-32155465D01*
X67863728Y-32176975D01*
X67850263Y-32203429D01*
X67844894Y-32211563D01*
X67841464Y-32216760D01*
X67810725Y-32259975D01*
G37*
G36*
X70934604Y-37643737D02*
G01*
X70930140Y-37647697D01*
X70904389Y-37670539D01*
X70830805Y-37732742D01*
X70742760Y-37804296D01*
X70646898Y-37879989D01*
X70549863Y-37954608D01*
X70458298Y-38022941D01*
X70378848Y-38079775D01*
X70220955Y-38186704D01*
X70030794Y-38308946D01*
X69831458Y-38430007D01*
X69620184Y-38551387D01*
X69394208Y-38674588D01*
X69150768Y-38801111D01*
X68887099Y-38932458D01*
X68600438Y-39070131D01*
X68288021Y-39215629D01*
X68238247Y-39238489D01*
X68058395Y-39320776D01*
X67900250Y-39392434D01*
X67759503Y-39455239D01*
X67631844Y-39510964D01*
X67512964Y-39561384D01*
X67398553Y-39608272D01*
X67284302Y-39653404D01*
X67165903Y-39698553D01*
X67039045Y-39745493D01*
X66899420Y-39795999D01*
X66742717Y-39851845D01*
X66668028Y-39878232D01*
X66550606Y-39919098D01*
X66445104Y-39954733D01*
X66344698Y-39987276D01*
X66242563Y-40018867D01*
X66131875Y-40051644D01*
X66005810Y-40087747D01*
X65857543Y-40129315D01*
X65851035Y-40131111D01*
X65787986Y-40146393D01*
X65727375Y-40156048D01*
X65665344Y-40159574D01*
X65598036Y-40156469D01*
X65521597Y-40146231D01*
X65432168Y-40128359D01*
X65325894Y-40102351D01*
X65198918Y-40067706D01*
X65047383Y-40023920D01*
X64993008Y-40007245D01*
X64903351Y-39978195D01*
X64795317Y-39941988D01*
X64674324Y-39900519D01*
X64545793Y-39855680D01*
X64415144Y-39809368D01*
X64287797Y-39763475D01*
X64169172Y-39719895D01*
X64064690Y-39680523D01*
X63931786Y-39628164D01*
X63754967Y-39555191D01*
X63561555Y-39472375D01*
X63355593Y-39381621D01*
X63141122Y-39284833D01*
X62922186Y-39183913D01*
X62702828Y-39080767D01*
X62487091Y-38977299D01*
X62279016Y-38875411D01*
X62082648Y-38777009D01*
X61902028Y-38683996D01*
X61741200Y-38598276D01*
X61604205Y-38521752D01*
X61578898Y-38507123D01*
X61335645Y-38361587D01*
X61102639Y-38213344D01*
X60883495Y-38064916D01*
X60681830Y-37918824D01*
X60501258Y-37777590D01*
X60350007Y-37647697D01*
X60516491Y-37647697D01*
X60674022Y-37779116D01*
X60851523Y-37920883D01*
X61126049Y-38119801D01*
X61429108Y-38317906D01*
X61759839Y-38514690D01*
X62117382Y-38709650D01*
X62500877Y-38902280D01*
X62909462Y-39092073D01*
X63056147Y-39157452D01*
X63258927Y-39246869D01*
X63441775Y-39326071D01*
X63608961Y-39396767D01*
X63764755Y-39460668D01*
X63913426Y-39519483D01*
X64059244Y-39574924D01*
X64206479Y-39628701D01*
X64359401Y-39682524D01*
X64522280Y-39738103D01*
X64650526Y-39781162D01*
X64769639Y-39820653D01*
X64870299Y-39853199D01*
X64957696Y-39880313D01*
X65037023Y-39903507D01*
X65113470Y-39924296D01*
X65192229Y-39944191D01*
X65278491Y-39964707D01*
X65377448Y-39987356D01*
X65418479Y-39996664D01*
X65494119Y-40013951D01*
X65557543Y-40028613D01*
X65603064Y-40039331D01*
X65624997Y-40044785D01*
X65635619Y-40045266D01*
X65672557Y-40040728D01*
X65726547Y-40030525D01*
X65790029Y-40015978D01*
X65827696Y-40006698D01*
X65915969Y-39985198D01*
X66010911Y-39962323D01*
X66097590Y-39941680D01*
X66154721Y-39927467D01*
X66287084Y-39890689D01*
X66440510Y-39843922D01*
X66610785Y-39788672D01*
X66793695Y-39726442D01*
X66985024Y-39658738D01*
X67180558Y-39587066D01*
X67376082Y-39512929D01*
X67567381Y-39437834D01*
X67750242Y-39363284D01*
X67920449Y-39290785D01*
X67957702Y-39274488D01*
X68300186Y-39122095D01*
X68616077Y-38976509D01*
X68907457Y-38836557D01*
X69176408Y-38701067D01*
X69425014Y-38568867D01*
X69655355Y-38438784D01*
X69869514Y-38309647D01*
X70069574Y-38180284D01*
X70257616Y-38049522D01*
X70435723Y-37916190D01*
X70605977Y-37779116D01*
X70763508Y-37647697D01*
X70673491Y-37644348D01*
X70629689Y-37642669D01*
X70480809Y-37636327D01*
X70326707Y-37628898D01*
X70173254Y-37620720D01*
X70026318Y-37612131D01*
X69891767Y-37603470D01*
X69775470Y-37595075D01*
X69683296Y-37587284D01*
X69552749Y-37574990D01*
X69214150Y-37543400D01*
X68904161Y-37514942D01*
X68621891Y-37489542D01*
X68366443Y-37467125D01*
X68136925Y-37447616D01*
X67932442Y-37430940D01*
X67752100Y-37417021D01*
X67595005Y-37405785D01*
X67460264Y-37397156D01*
X67346981Y-37391059D01*
X67311604Y-37389443D01*
X67233498Y-37386586D01*
X67179489Y-37386178D01*
X67145307Y-37388419D01*
X67126680Y-37393508D01*
X67119341Y-37401642D01*
X67114029Y-37419619D01*
X67102070Y-37461575D01*
X67085678Y-37519845D01*
X67066758Y-37587685D01*
X67031287Y-37707358D01*
X66944678Y-37952658D01*
X66842540Y-38189925D01*
X66727201Y-38414816D01*
X66600988Y-38622987D01*
X66466228Y-38810093D01*
X66325248Y-38971791D01*
X66241509Y-39055280D01*
X66148220Y-39139504D01*
X66059763Y-39207750D01*
X65969605Y-39264970D01*
X65871214Y-39316121D01*
X65857219Y-39322729D01*
X65797249Y-39348935D01*
X65749090Y-39364013D01*
X65700690Y-39370903D01*
X65640000Y-39372546D01*
X65626722Y-39372499D01*
X65569352Y-39370069D01*
X65521940Y-39361824D01*
X65472434Y-39344821D01*
X65408786Y-39316121D01*
X65328127Y-39274934D01*
X65236916Y-39219237D01*
X65148638Y-39153451D01*
X65056761Y-39072620D01*
X64954752Y-38971791D01*
X64886252Y-38897394D01*
X64747976Y-38722921D01*
X64617041Y-38525132D01*
X64495772Y-38308369D01*
X64386498Y-38076978D01*
X64291545Y-37835302D01*
X64213242Y-37587685D01*
X64196692Y-37528314D01*
X64179861Y-37468410D01*
X64167215Y-37423938D01*
X64160659Y-37401642D01*
X64159017Y-37398305D01*
X64148049Y-37391306D01*
X64124236Y-37387281D01*
X64083307Y-37386030D01*
X64020991Y-37387356D01*
X63933019Y-37391059D01*
X63894206Y-37392990D01*
X63773214Y-37400000D01*
X63630439Y-37409570D01*
X63464984Y-37421774D01*
X63275957Y-37436688D01*
X63062464Y-37454387D01*
X62823609Y-37474946D01*
X62558500Y-37498440D01*
X62266242Y-37524944D01*
X61945942Y-37554534D01*
X61596704Y-37587284D01*
X61571295Y-37589594D01*
X61471082Y-37597607D01*
X61348550Y-37606119D01*
X61209568Y-37614794D01*
X61060004Y-37623293D01*
X60905728Y-37631276D01*
X60752606Y-37638408D01*
X60606509Y-37644348D01*
X60516491Y-37647697D01*
X60350007Y-37647697D01*
X60345396Y-37643737D01*
X60249315Y-37556420D01*
X60266631Y-37495913D01*
X60466073Y-37495913D01*
X60472844Y-37496809D01*
X60506542Y-37496993D01*
X60565865Y-37495632D01*
X60648094Y-37492866D01*
X60750510Y-37488834D01*
X60870396Y-37483674D01*
X61005034Y-37477527D01*
X61151706Y-37470530D01*
X61307693Y-37462824D01*
X61470277Y-37454548D01*
X61636741Y-37445840D01*
X61804366Y-37436840D01*
X61970434Y-37427686D01*
X62132227Y-37418519D01*
X62287028Y-37409477D01*
X62432117Y-37400700D01*
X62564777Y-37392326D01*
X62682290Y-37384495D01*
X62781937Y-37377346D01*
X62827748Y-37373983D01*
X64252728Y-37373983D01*
X64256932Y-37398371D01*
X64269195Y-37443958D01*
X64287986Y-37505362D01*
X64311776Y-37577199D01*
X64397824Y-37814817D01*
X64506109Y-38077141D01*
X64619461Y-38312063D01*
X64738802Y-38520902D01*
X64865054Y-38704981D01*
X64999139Y-38865621D01*
X65141979Y-39004145D01*
X65294495Y-39121873D01*
X65457609Y-39220128D01*
X65458464Y-39220578D01*
X65535995Y-39258179D01*
X65598715Y-39282020D01*
X65641813Y-39290269D01*
X65680462Y-39282485D01*
X65738507Y-39260364D01*
X65808727Y-39227083D01*
X65884886Y-39185825D01*
X65960748Y-39139773D01*
X66030077Y-39092109D01*
X66076819Y-39055175D01*
X66165696Y-38975521D01*
X66259233Y-38881915D01*
X66350515Y-38781749D01*
X66432625Y-38682415D01*
X66498648Y-38591305D01*
X66519455Y-38558967D01*
X66587785Y-38444242D01*
X66659292Y-38313162D01*
X66729286Y-38174882D01*
X66793077Y-38038560D01*
X66845973Y-37913349D01*
X66847706Y-37908939D01*
X66880395Y-37823561D01*
X66913188Y-37734234D01*
X66944561Y-37645532D01*
X66972986Y-37562032D01*
X66996938Y-37488309D01*
X67014889Y-37428939D01*
X67025315Y-37388497D01*
X67026689Y-37371558D01*
X67026283Y-37371391D01*
X67006667Y-37370099D01*
X66959428Y-37368866D01*
X66886677Y-37367704D01*
X66790531Y-37366628D01*
X66673102Y-37365652D01*
X66536506Y-37364788D01*
X66382856Y-37364051D01*
X66214266Y-37363455D01*
X66032851Y-37363011D01*
X65840724Y-37362735D01*
X65640000Y-37362640D01*
X65614226Y-37362642D01*
X65414472Y-37362761D01*
X65223583Y-37363058D01*
X65043672Y-37363522D01*
X64876854Y-37364137D01*
X64725242Y-37364891D01*
X64590952Y-37365769D01*
X64476097Y-37366759D01*
X64382791Y-37367847D01*
X64313149Y-37369018D01*
X64269284Y-37370260D01*
X64253311Y-37371558D01*
X64252728Y-37373983D01*
X62827748Y-37373983D01*
X62875167Y-37370502D01*
X63017065Y-37360809D01*
X63162057Y-37351847D01*
X63313987Y-37343429D01*
X63476699Y-37335368D01*
X63654036Y-37327478D01*
X63849843Y-37319571D01*
X64067962Y-37311461D01*
X64312238Y-37302961D01*
X64351995Y-37301604D01*
X64507457Y-37296108D01*
X64665616Y-37290247D01*
X64821024Y-37284237D01*
X64968233Y-37278298D01*
X65101794Y-37272648D01*
X65216261Y-37267506D01*
X65306184Y-37263091D01*
X65372766Y-37259807D01*
X65525772Y-37254408D01*
X65667936Y-37253155D01*
X65812777Y-37256046D01*
X65973816Y-37263083D01*
X65991021Y-37263970D01*
X66087187Y-37268582D01*
X66206639Y-37273865D01*
X66343865Y-37279599D01*
X66493353Y-37285562D01*
X66649589Y-37291534D01*
X66807062Y-37297294D01*
X66960260Y-37302621D01*
X67122850Y-37308138D01*
X67290415Y-37313931D01*
X67435396Y-37319129D01*
X67561802Y-37323923D01*
X67673644Y-37328503D01*
X67774930Y-37333063D01*
X67869672Y-37337792D01*
X67961877Y-37342883D01*
X68055557Y-37348527D01*
X68154721Y-37354916D01*
X68263379Y-37362242D01*
X68385540Y-37370694D01*
X68398126Y-37371558D01*
X68479511Y-37377145D01*
X68699794Y-37391602D01*
X68933000Y-37406096D01*
X69173009Y-37420287D01*
X69413700Y-37433835D01*
X69648956Y-37446402D01*
X69872656Y-37457646D01*
X70078680Y-37467229D01*
X70260909Y-37474810D01*
X70355313Y-37478534D01*
X70461802Y-37482963D01*
X70558349Y-37487218D01*
X70639943Y-37491070D01*
X70701574Y-37494289D01*
X70738229Y-37496646D01*
X70817971Y-37503202D01*
X70808096Y-37455426D01*
X70801635Y-37426918D01*
X70768200Y-37315021D01*
X70719222Y-37185686D01*
X70657003Y-37043699D01*
X70583848Y-36893847D01*
X70502059Y-36740915D01*
X70413941Y-36589690D01*
X70321797Y-36444958D01*
X70317835Y-36439030D01*
X70174463Y-36233386D01*
X70031795Y-36047371D01*
X69882570Y-35871984D01*
X69719528Y-35698222D01*
X69529348Y-35504092D01*
X69433788Y-35586985D01*
X69425795Y-35593878D01*
X69251758Y-35725161D01*
X69069447Y-35827736D01*
X68879130Y-35901497D01*
X68681077Y-35946340D01*
X68475558Y-35962158D01*
X68302536Y-35954762D01*
X68095396Y-35921154D01*
X67901082Y-35860430D01*
X67719518Y-35772556D01*
X67550625Y-35657500D01*
X67394324Y-35515230D01*
X67360873Y-35479983D01*
X67290692Y-35400753D01*
X67234492Y-35326870D01*
X67185448Y-35248850D01*
X67136735Y-35157206D01*
X67059170Y-34977731D01*
X67006906Y-34795124D01*
X66980894Y-34607470D01*
X66980037Y-34456463D01*
X67093829Y-34456463D01*
X67102329Y-34646305D01*
X67137647Y-34832796D01*
X67198426Y-35012579D01*
X67283308Y-35182299D01*
X67390937Y-35338601D01*
X67519956Y-35478128D01*
X67669008Y-35597527D01*
X67679832Y-35604773D01*
X67776555Y-35661184D01*
X67888637Y-35715142D01*
X68003356Y-35760981D01*
X68107986Y-35793033D01*
X68118806Y-35795628D01*
X68313725Y-35826966D01*
X68505892Y-35829810D01*
X68692956Y-35805589D01*
X68872569Y-35755734D01*
X69042381Y-35681675D01*
X69200043Y-35584844D01*
X69343205Y-35466670D01*
X69469517Y-35328584D01*
X69576632Y-35172016D01*
X69662198Y-34998397D01*
X69723867Y-34809158D01*
X69734817Y-34759198D01*
X69753675Y-34614242D01*
X69758048Y-34459439D01*
X69747944Y-34306694D01*
X69723373Y-34167912D01*
X69704570Y-34101862D01*
X69663272Y-33987817D01*
X69612492Y-33873420D01*
X69556831Y-33768685D01*
X69500891Y-33683628D01*
X69442181Y-33614687D01*
X69343809Y-33520645D01*
X69230668Y-33430866D01*
X69111028Y-33351765D01*
X68993160Y-33289759D01*
X68985895Y-33286510D01*
X68876809Y-33242263D01*
X68774198Y-33211011D01*
X68669094Y-33191016D01*
X68552532Y-33180541D01*
X68415546Y-33177850D01*
X68336313Y-33178510D01*
X68262075Y-33180563D01*
X68204002Y-33184798D01*
X68154532Y-33192073D01*
X68106102Y-33203245D01*
X68051150Y-33219173D01*
X67983933Y-33241528D01*
X67799504Y-33323001D01*
X67632737Y-33427628D01*
X67485210Y-33553682D01*
X67358504Y-33699437D01*
X67254200Y-33863167D01*
X67173876Y-34043144D01*
X67119114Y-34237643D01*
X67113502Y-34266626D01*
X67093829Y-34456463D01*
X66980037Y-34456463D01*
X66979763Y-34408233D01*
X66988362Y-34302407D01*
X67014282Y-34150976D01*
X67058159Y-34005189D01*
X67123036Y-33853251D01*
X67157800Y-33784381D01*
X67238380Y-33650453D01*
X67331451Y-33531052D01*
X67444814Y-33415566D01*
X67458650Y-33402672D01*
X67497547Y-33365156D01*
X67519014Y-33340809D01*
X67521470Y-33329650D01*
X67503339Y-33331700D01*
X67463041Y-33346979D01*
X67398998Y-33375508D01*
X67309631Y-33417307D01*
X67289648Y-33426852D01*
X67130900Y-33510623D01*
X66985755Y-33601341D01*
X66856819Y-33696719D01*
X66746695Y-33794473D01*
X66657990Y-33892317D01*
X66593307Y-33987966D01*
X66555253Y-34079134D01*
X66548039Y-34103870D01*
X66533262Y-34145903D01*
X66521009Y-34170762D01*
X66516792Y-34172634D01*
X66486980Y-34176639D01*
X66431822Y-34180161D01*
X66354575Y-34183200D01*
X66258493Y-34185754D01*
X66146834Y-34187826D01*
X66022851Y-34189414D01*
X65889802Y-34190519D01*
X65750942Y-34191140D01*
X65609526Y-34191277D01*
X65468811Y-34190932D01*
X65332052Y-34190103D01*
X65202504Y-34188790D01*
X65083425Y-34186994D01*
X64978068Y-34184714D01*
X64889691Y-34181952D01*
X64821548Y-34178705D01*
X64776896Y-34174975D01*
X64758991Y-34170762D01*
X64753190Y-34160677D01*
X64739061Y-34125363D01*
X64724747Y-34079134D01*
X64721649Y-34068429D01*
X64680238Y-33976598D01*
X64612514Y-33880563D01*
X64521081Y-33782608D01*
X64408545Y-33685020D01*
X64277511Y-33590084D01*
X64130584Y-33500084D01*
X63970368Y-33417307D01*
X63943688Y-33404728D01*
X63861300Y-33366506D01*
X63803782Y-33341526D01*
X63769537Y-33329746D01*
X63756966Y-33331127D01*
X63764468Y-33345627D01*
X63790447Y-33373206D01*
X63833302Y-33413823D01*
X63856367Y-33435649D01*
X63998716Y-33592669D01*
X64114177Y-33762803D01*
X64202395Y-33945182D01*
X64263014Y-34138935D01*
X64295681Y-34343193D01*
X64298951Y-34503599D01*
X64300041Y-34557088D01*
X64289080Y-34694549D01*
X64264184Y-34836327D01*
X64223405Y-34971817D01*
X64163885Y-35112684D01*
X64129039Y-35183863D01*
X64079291Y-35274152D01*
X64026782Y-35352770D01*
X63964562Y-35429776D01*
X63885676Y-35515230D01*
X63763053Y-35630039D01*
X63596796Y-35750775D01*
X63417885Y-35844323D01*
X63226240Y-35910714D01*
X63021785Y-35949982D01*
X62804442Y-35962158D01*
X62794593Y-35962065D01*
X62589419Y-35944877D01*
X62391725Y-35898670D01*
X62201779Y-35823548D01*
X62019852Y-35719618D01*
X61846212Y-35586985D01*
X61750651Y-35504092D01*
X61560471Y-35698222D01*
X61538559Y-35720705D01*
X61381523Y-35889838D01*
X61236821Y-36061533D01*
X61097427Y-36244502D01*
X60956314Y-36447460D01*
X60919716Y-36503569D01*
X60844594Y-36626478D01*
X60769864Y-36758076D01*
X60698323Y-36892817D01*
X60632770Y-37025151D01*
X60576003Y-37149531D01*
X60530820Y-37260406D01*
X60500019Y-37352230D01*
X60489700Y-37389688D01*
X60475938Y-37443173D01*
X60467555Y-37480726D01*
X60466073Y-37495913D01*
X60266631Y-37495913D01*
X60289924Y-37414521D01*
X60301052Y-37378908D01*
X60332935Y-37292826D01*
X60372004Y-37201542D01*
X60412553Y-37118819D01*
X60424260Y-37096968D01*
X60449935Y-37049978D01*
X60476621Y-37002779D01*
X60506492Y-36951796D01*
X60541722Y-36893453D01*
X60584485Y-36824175D01*
X60636955Y-36740387D01*
X60701306Y-36638511D01*
X60779713Y-36514974D01*
X60966379Y-36238981D01*
X61223577Y-35906298D01*
X61505787Y-35589379D01*
X61680301Y-35406430D01*
X61626048Y-35335355D01*
X61622080Y-35330098D01*
X61564363Y-35241579D01*
X61507263Y-35133749D01*
X61455489Y-35016289D01*
X61413752Y-34898883D01*
X61405269Y-34870834D01*
X61392643Y-34824463D01*
X61383831Y-34780999D01*
X61378156Y-34733861D01*
X61374941Y-34676466D01*
X61373509Y-34602232D01*
X61373215Y-34514289D01*
X61521825Y-34514289D01*
X61531729Y-34670045D01*
X61556715Y-34812138D01*
X61589787Y-34920685D01*
X61647990Y-35061641D01*
X61719647Y-35197950D01*
X61798812Y-35317209D01*
X61885585Y-35418560D01*
X62023757Y-35542611D01*
X62180501Y-35647640D01*
X62351502Y-35731266D01*
X62532442Y-35791108D01*
X62719004Y-35824786D01*
X62750452Y-35828011D01*
X62808193Y-35833435D01*
X62851211Y-35836800D01*
X62871955Y-35837482D01*
X62873368Y-35837317D01*
X62898277Y-35834711D01*
X62943193Y-35830206D01*
X62999480Y-35824670D01*
X63105715Y-35809317D01*
X63286817Y-35760204D01*
X63461819Y-35684050D01*
X63626740Y-35582732D01*
X63777596Y-35458126D01*
X63787255Y-35448844D01*
X63919377Y-35300505D01*
X64025442Y-35137659D01*
X64104786Y-34961755D01*
X64156747Y-34774239D01*
X64180665Y-34576561D01*
X64182694Y-34503599D01*
X64172152Y-34313377D01*
X64137000Y-34136049D01*
X64076082Y-33966969D01*
X63988246Y-33801492D01*
X63879070Y-33647249D01*
X63745021Y-33505609D01*
X63592357Y-33387348D01*
X63420494Y-33292018D01*
X63228850Y-33219173D01*
X63182609Y-33205605D01*
X63133601Y-33193681D01*
X63084844Y-33185801D01*
X63028775Y-33181108D01*
X62957833Y-33178743D01*
X62864453Y-33177850D01*
X62855088Y-33177823D01*
X62719647Y-33180952D01*
X62604068Y-33191972D01*
X62499384Y-33212622D01*
X62396630Y-33244639D01*
X62286840Y-33289759D01*
X62199624Y-33334019D01*
X62079650Y-33409357D01*
X61964059Y-33497015D01*
X61861122Y-33590577D01*
X61779108Y-33683628D01*
X61744690Y-33733427D01*
X61688381Y-33831848D01*
X61635199Y-33943747D01*
X61589748Y-34059106D01*
X61556626Y-34167912D01*
X61547268Y-34209641D01*
X61527004Y-34356834D01*
X61521825Y-34514289D01*
X61373215Y-34514289D01*
X61373182Y-34504578D01*
X61373260Y-34449281D01*
X61374090Y-34364919D01*
X61376386Y-34300473D01*
X61380826Y-34249358D01*
X61388086Y-34204993D01*
X61398845Y-34160793D01*
X61413780Y-34110175D01*
X61454381Y-33993830D01*
X61542836Y-33805079D01*
X61653051Y-33634083D01*
X61783213Y-33483920D01*
X61803067Y-33464609D01*
X61873833Y-33400683D01*
X61951967Y-33335950D01*
X62030341Y-33275938D01*
X62101832Y-33226173D01*
X62159315Y-33192181D01*
X62166277Y-33188605D01*
X62206210Y-33165906D01*
X62234329Y-33146591D01*
X62247799Y-33138732D01*
X62286689Y-33121897D01*
X62342107Y-33101093D01*
X62406863Y-33079131D01*
X62424630Y-33073459D01*
X62488664Y-33054565D01*
X62545748Y-33041515D01*
X62605120Y-33032871D01*
X62676019Y-33027200D01*
X62767685Y-33023064D01*
X62806714Y-33021775D01*
X62899097Y-33020511D01*
X62973718Y-33023082D01*
X63039471Y-33029979D01*
X63105251Y-33041695D01*
X63126916Y-33046110D01*
X63184858Y-33057044D01*
X63230178Y-33064351D01*
X63254530Y-33066636D01*
X63372360Y-33066219D01*
X63547189Y-33088341D01*
X63725506Y-33135348D01*
X63903795Y-33205121D01*
X64078539Y-33295542D01*
X64246224Y-33404492D01*
X64403332Y-33529854D01*
X64546347Y-33669509D01*
X64671754Y-33821339D01*
X64776035Y-33983225D01*
X64832423Y-34084495D01*
X66447577Y-34084495D01*
X66503965Y-33983225D01*
X66561085Y-33888487D01*
X66693270Y-33712009D01*
X66849434Y-33551200D01*
X67027568Y-33407783D01*
X67225660Y-33283478D01*
X67441701Y-33180007D01*
X67513028Y-33152179D01*
X67692177Y-33097608D01*
X67862061Y-33069274D01*
X68025469Y-33066636D01*
X68031068Y-33066496D01*
X68063690Y-33062299D01*
X68114365Y-33053567D01*
X68174749Y-33041695D01*
X68198825Y-33036923D01*
X68263574Y-33026986D01*
X68331475Y-33021691D01*
X68411424Y-33020548D01*
X68512315Y-33023064D01*
X68537146Y-33024011D01*
X68622881Y-33028390D01*
X68690108Y-33034655D01*
X68748067Y-33044244D01*
X68805996Y-33058590D01*
X68873136Y-33079131D01*
X68918689Y-33094349D01*
X68977737Y-33115808D01*
X69022461Y-33134159D01*
X69045670Y-33146591D01*
X69049012Y-33149277D01*
X69080267Y-33169842D01*
X69120685Y-33192181D01*
X69137055Y-33200968D01*
X69199777Y-33240588D01*
X69274236Y-33294220D01*
X69353307Y-33356337D01*
X69429866Y-33421413D01*
X69496787Y-33483920D01*
X69613682Y-33616788D01*
X69725053Y-33784464D01*
X69814313Y-33969079D01*
X69879433Y-34167011D01*
X69893251Y-34222789D01*
X69904123Y-34275707D01*
X69910678Y-34325931D01*
X69913610Y-34381625D01*
X69913617Y-34450954D01*
X69913410Y-34459439D01*
X69911394Y-34542085D01*
X69911303Y-34545127D01*
X69907516Y-34642319D01*
X69902083Y-34718014D01*
X69893934Y-34780489D01*
X69881997Y-34838019D01*
X69865199Y-34898883D01*
X69863827Y-34903427D01*
X69822209Y-35021161D01*
X69770144Y-35139032D01*
X69712452Y-35247083D01*
X69653952Y-35335355D01*
X69599699Y-35406430D01*
X69774212Y-35589379D01*
X70001444Y-35841021D01*
X70263771Y-36170625D01*
X70500286Y-36514974D01*
X70537163Y-36573026D01*
X70609027Y-36686452D01*
X70667806Y-36779812D01*
X70715674Y-36856681D01*
X70754806Y-36920636D01*
X70787374Y-36975251D01*
X70815555Y-37024103D01*
X70841521Y-37070767D01*
X70867447Y-37118819D01*
X70886843Y-37156809D01*
X70927390Y-37245382D01*
X70963703Y-37335873D01*
X70990076Y-37414521D01*
X71015454Y-37503202D01*
X71030684Y-37556420D01*
X70934604Y-37643737D01*
G37*
G36*
X61363778Y-35382251D02*
G01*
X61354661Y-35397579D01*
X61327964Y-35433068D01*
X61289191Y-35479979D01*
X61243190Y-35532280D01*
X61231995Y-35544670D01*
X60997484Y-35820426D01*
X60790225Y-36097653D01*
X60607668Y-36379998D01*
X60447266Y-36671108D01*
X60439111Y-36687202D01*
X60397130Y-36769466D01*
X60359446Y-36842375D01*
X60328349Y-36901563D01*
X60306128Y-36942664D01*
X60295073Y-36961311D01*
X60287384Y-36970176D01*
X60274082Y-36977595D01*
X60254102Y-36975063D01*
X60220843Y-36961194D01*
X60167703Y-36934604D01*
X60054803Y-36862492D01*
X59944180Y-36762364D01*
X59843168Y-36640546D01*
X59754736Y-36501150D01*
X59681850Y-36348290D01*
X59627481Y-36186078D01*
X59624005Y-36172899D01*
X59609042Y-36110189D01*
X59598861Y-36051872D01*
X59592534Y-35989355D01*
X59589137Y-35914041D01*
X59588281Y-35854673D01*
X59761041Y-35854673D01*
X59766003Y-35971734D01*
X59779553Y-36070949D01*
X59801525Y-36162242D01*
X59853727Y-36312904D01*
X59925680Y-36455074D01*
X60020415Y-36594334D01*
X60140965Y-36736267D01*
X60169177Y-36766157D01*
X60209529Y-36806791D01*
X60239863Y-36834679D01*
X60255156Y-36845039D01*
X60257166Y-36844267D01*
X60272240Y-36826242D01*
X60295106Y-36789188D01*
X60321659Y-36739608D01*
X60335537Y-36712681D01*
X60376890Y-36636297D01*
X60429098Y-36543501D01*
X60488533Y-36440481D01*
X60551569Y-36333424D01*
X60614580Y-36228513D01*
X60673938Y-36131938D01*
X60726017Y-36049882D01*
X60740892Y-36027287D01*
X60789437Y-35956310D01*
X60847264Y-35874763D01*
X60911060Y-35787038D01*
X60977512Y-35697528D01*
X61043307Y-35610625D01*
X61105131Y-35530721D01*
X61159670Y-35462210D01*
X61203612Y-35409483D01*
X61233643Y-35376933D01*
X61260047Y-35350964D01*
X61276096Y-35328220D01*
X61276233Y-35305838D01*
X61263709Y-35272531D01*
X61262499Y-35269622D01*
X61228314Y-35177577D01*
X61194675Y-35069939D01*
X61163290Y-34953973D01*
X61135866Y-34836946D01*
X61114110Y-34726122D01*
X61099728Y-34628766D01*
X61094430Y-34552143D01*
X61094105Y-34442178D01*
X60992835Y-34452742D01*
X60914779Y-34463085D01*
X60720449Y-34508917D01*
X60538016Y-34581003D01*
X60369422Y-34677683D01*
X60216606Y-34797297D01*
X60081511Y-34938183D01*
X59966076Y-35098681D01*
X59872243Y-35277130D01*
X59801951Y-35471868D01*
X59793651Y-35504211D01*
X59775268Y-35610131D01*
X59764264Y-35730545D01*
X59761041Y-35854673D01*
X59588281Y-35854673D01*
X59587742Y-35817336D01*
X59587608Y-35789554D01*
X59588206Y-35700471D01*
X59591140Y-35631001D01*
X59597187Y-35572944D01*
X59607123Y-35518101D01*
X59621723Y-35458271D01*
X59665045Y-35316369D01*
X59739756Y-35138565D01*
X59833825Y-34977218D01*
X59920073Y-34861708D01*
X60059204Y-34714119D01*
X60214951Y-34587736D01*
X60384312Y-34484310D01*
X60564287Y-34405594D01*
X60751875Y-34353338D01*
X60944075Y-34329293D01*
X61020692Y-34325928D01*
X61078669Y-34327011D01*
X61117300Y-34336991D01*
X61140729Y-34360084D01*
X61153102Y-34400505D01*
X61158562Y-34462470D01*
X61161254Y-34550193D01*
X61161981Y-34573727D01*
X61167224Y-34662695D01*
X61177203Y-34746566D01*
X61193279Y-34830706D01*
X61216813Y-34920478D01*
X61249168Y-35021246D01*
X61291704Y-35138376D01*
X61345782Y-35277230D01*
X61349332Y-35286409D01*
X61354755Y-35305838D01*
X61365407Y-35344001D01*
X61363778Y-35382251D01*
G37*
%TO.C,JP1*%
X71350000Y-33000000D02*
X71350000Y-32400000D01*
X73150000Y-29450000D02*
X72550000Y-29450000D01*
X71850000Y-30100000D02*
X71850000Y-32900000D01*
X71650000Y-32700000D02*
X71350000Y-32400000D01*
X72550000Y-33550000D02*
X73150000Y-33550000D01*
X71650000Y-32700000D02*
X71350000Y-33000000D01*
X73850000Y-32900000D02*
X73850000Y-30100000D01*
X73150000Y-33550000D02*
G75*
G03*
X73850000Y-32850000I1J699999D01*
G01*
X72550000Y-29450000D02*
G75*
G03*
X71850000Y-30150000I-1J-699999D01*
G01*
X71850000Y-32850000D02*
G75*
G03*
X72550000Y-33550000I699999J-1D01*
G01*
X73850000Y-30150000D02*
G75*
G03*
X73150000Y-29450000I-699999J1D01*
G01*
%TO.C,JP4*%
X60400000Y-21400000D02*
X59000000Y-21400000D01*
X61100000Y-22700000D02*
X61100000Y-22100000D01*
X59000000Y-23400000D02*
X60400000Y-23400000D01*
X58300000Y-22100000D02*
X58300000Y-22700000D01*
X59000000Y-21400000D02*
G75*
G03*
X58300000Y-22100000I-1J-699999D01*
G01*
X58300000Y-22700000D02*
G75*
G03*
X59000000Y-23400000I699999J-1D01*
G01*
X61100000Y-22100000D02*
G75*
G03*
X60400000Y-21400000I-699999J1D01*
G01*
X60400000Y-23400000D02*
G75*
G03*
X61100000Y-22700000I1J699999D01*
G01*
%TO.C,R7*%
X66522500Y-29254724D02*
X66522500Y-28745276D01*
X65477500Y-29254724D02*
X65477500Y-28745276D01*
%TO.C,C12*%
X40096267Y-63440000D02*
X39803733Y-63440000D01*
X40096267Y-64460000D02*
X39803733Y-64460000D01*
%TO.C,R3*%
X53904724Y-26722500D02*
X53395276Y-26722500D01*
X53904724Y-25677500D02*
X53395276Y-25677500D01*
%TO.C,C11*%
X63965000Y-21521267D02*
X63965000Y-21228733D01*
X64985000Y-21521267D02*
X64985000Y-21228733D01*
D12*
%TO.C,D1*%
X89000000Y-28750000D02*
X88450000Y-28750000D01*
X89000000Y-28750000D02*
X89550000Y-28750000D01*
X89400000Y-28150000D02*
X88600000Y-28150000D01*
D13*
X88000000Y-30650000D02*
X88000000Y-26750000D01*
X90000000Y-30650000D02*
X88000000Y-30650000D01*
D12*
X89000000Y-28150000D02*
X89000000Y-27650000D01*
D13*
X90000000Y-30650000D02*
X90000000Y-26750000D01*
D12*
X89000000Y-28750000D02*
X89400000Y-28150000D01*
X88600000Y-28150000D02*
X89000000Y-28750000D01*
X89000000Y-29150000D02*
X89000000Y-28750000D01*
D13*
%TO.C,JP2*%
X41950000Y-25650000D02*
X43350000Y-25650000D01*
X44050000Y-24950000D02*
X44050000Y-24350000D01*
X43350000Y-23650000D02*
X41950000Y-23650000D01*
X41250000Y-24350000D02*
X41250000Y-24950000D01*
X41250000Y-24950000D02*
G75*
G03*
X41950000Y-25650000I699999J-1D01*
G01*
X41950000Y-23650000D02*
G75*
G03*
X41250000Y-24350000I-1J-699999D01*
G01*
X44050000Y-24350000D02*
G75*
G03*
X43350000Y-23650000I-699999J1D01*
G01*
X43350000Y-25650000D02*
G75*
G03*
X44050000Y-24950000I1J699999D01*
G01*
%TO.C,R9*%
X72654724Y-28622500D02*
X72145276Y-28622500D01*
X72654724Y-27577500D02*
X72145276Y-27577500D01*
%TO.C,D3*%
X77800000Y-52050000D02*
X77800000Y-48150000D01*
D12*
X77200000Y-49550000D02*
X76400000Y-49550000D01*
X76800000Y-50150000D02*
X76250000Y-50150000D01*
X76800000Y-49550000D02*
X76800000Y-49050000D01*
D13*
X77800000Y-52050000D02*
X75800000Y-52050000D01*
D12*
X76800000Y-50550000D02*
X76800000Y-50150000D01*
X76800000Y-50150000D02*
X77200000Y-49550000D01*
D13*
X75800000Y-52050000D02*
X75800000Y-48150000D01*
D12*
X76400000Y-49550000D02*
X76800000Y-50150000D01*
X76800000Y-50150000D02*
X77350000Y-50150000D01*
%TO.C,D8*%
X57800000Y-87700000D02*
X57800000Y-87200000D01*
X57800000Y-88300000D02*
X57250000Y-88300000D01*
D13*
X58800000Y-90200000D02*
X58800000Y-86300000D01*
D12*
X57800000Y-88300000D02*
X58350000Y-88300000D01*
D13*
X56800000Y-90200000D02*
X56800000Y-86300000D01*
D12*
X58200000Y-87700000D02*
X57400000Y-87700000D01*
X57800000Y-88300000D02*
X58200000Y-87700000D01*
D13*
X58800000Y-90200000D02*
X56800000Y-90200000D01*
D12*
X57800000Y-88700000D02*
X57800000Y-88300000D01*
X57400000Y-87700000D02*
X57800000Y-88300000D01*
D13*
%TO.C,D6*%
X75750000Y-71400000D02*
X75750000Y-67500000D01*
D12*
X76750000Y-69500000D02*
X77300000Y-69500000D01*
X76750000Y-69900000D02*
X76750000Y-69500000D01*
X77150000Y-68900000D02*
X76350000Y-68900000D01*
X76750000Y-69500000D02*
X77150000Y-68900000D01*
X76350000Y-68900000D02*
X76750000Y-69500000D01*
X76750000Y-69500000D02*
X76200000Y-69500000D01*
X76750000Y-68900000D02*
X76750000Y-68400000D01*
D13*
X77750000Y-71400000D02*
X77750000Y-67500000D01*
X77750000Y-71400000D02*
X75750000Y-71400000D01*
%TO.C,JP3*%
X47000000Y-23650000D02*
X45600000Y-23650000D01*
X47700000Y-24950000D02*
X47700000Y-24350000D01*
X44900000Y-24350000D02*
X44900000Y-24950000D01*
X45600000Y-25650000D02*
X47000000Y-25650000D01*
X47700000Y-24350000D02*
G75*
G03*
X47000000Y-23650000I-699999J1D01*
G01*
X45600000Y-23650000D02*
G75*
G03*
X44900000Y-24350000I-1J-699999D01*
G01*
X47000000Y-25650000D02*
G75*
G03*
X47700000Y-24950000I1J699999D01*
G01*
X44900000Y-24950000D02*
G75*
G03*
X45600000Y-25650000I699999J-1D01*
G01*
%TO.C,R5*%
X45572500Y-31095276D02*
X45572500Y-31604724D01*
X44527500Y-31095276D02*
X44527500Y-31604724D01*
D12*
%TO.C,D4*%
X95400000Y-49450000D02*
X95800000Y-50050000D01*
X95800000Y-50050000D02*
X96350000Y-50050000D01*
D13*
X96800000Y-51950000D02*
X96800000Y-48050000D01*
D12*
X96200000Y-49450000D02*
X95400000Y-49450000D01*
X95800000Y-50050000D02*
X96200000Y-49450000D01*
X95800000Y-49450000D02*
X95800000Y-48950000D01*
X95800000Y-50050000D02*
X95250000Y-50050000D01*
X95800000Y-50450000D02*
X95800000Y-50050000D01*
D13*
X94800000Y-51950000D02*
X94800000Y-48050000D01*
X96800000Y-51950000D02*
X94800000Y-51950000D01*
%TO.C,D11*%
X72700000Y-18675000D02*
X72700000Y-19825000D01*
X65400000Y-18675000D02*
X72700000Y-18675000D01*
X65400000Y-24175000D02*
X72700000Y-24175000D01*
D15*
%TO.C,IC1*%
X56050000Y-29000000D02*
G75*
G03*
X56050000Y-29000000I-125000J0D01*
G01*
D12*
%TO.C,D5*%
X57850000Y-68850000D02*
X57850000Y-68350000D01*
D13*
X58850000Y-71350000D02*
X58850000Y-67450000D01*
D12*
X57850000Y-69850000D02*
X57850000Y-69450000D01*
X57850000Y-69450000D02*
X57300000Y-69450000D01*
X58250000Y-68850000D02*
X57450000Y-68850000D01*
D13*
X56850000Y-71350000D02*
X56850000Y-67450000D01*
X58850000Y-71350000D02*
X56850000Y-71350000D01*
D12*
X57850000Y-69450000D02*
X58250000Y-68850000D01*
X57850000Y-69450000D02*
X58400000Y-69450000D01*
X57450000Y-68850000D02*
X57850000Y-69450000D01*
%TD*%
%LPC*%
D16*
%TO.C,MX6*%
X90640000Y-63970000D03*
D17*
X83020000Y-69050000D03*
D18*
X88100000Y-69050000D03*
D16*
X84290000Y-66510000D03*
D17*
X93180000Y-69050000D03*
D19*
X81015000Y-66510000D03*
X93942000Y-63970000D03*
%TD*%
D16*
%TO.C,MX8*%
X71590000Y-83020000D03*
X65240000Y-85560000D03*
D17*
X74130000Y-88100000D03*
D18*
X69050000Y-88100000D03*
D17*
X63970000Y-88100000D03*
D19*
X61965000Y-85560000D03*
X74892000Y-83020000D03*
%TD*%
D18*
%TO.C,MX7*%
X50000000Y-88100000D03*
D17*
X44920000Y-88100000D03*
D16*
X52540000Y-83020000D03*
D17*
X55080000Y-88100000D03*
D16*
X46190000Y-85560000D03*
D19*
X42915000Y-85560000D03*
X55842000Y-83020000D03*
%TD*%
D20*
%TO.C,H3*%
X38450000Y-98000000D03*
D21*
X38450000Y-98000000D03*
%TD*%
%TO.C,H2*%
X38450000Y-21050000D03*
D20*
X38450000Y-21050000D03*
%TD*%
D22*
%TO.C,J3*%
X76150000Y-27100000D03*
D23*
X76150000Y-29640000D03*
X76150000Y-32180000D03*
X76150000Y-34720000D03*
%TD*%
D22*
%TO.C,J6*%
X99950000Y-40375000D03*
D23*
X99950000Y-42915000D03*
X99950000Y-45455000D03*
%TD*%
D22*
%TO.C,J1*%
X99800000Y-27425000D03*
D23*
X99800000Y-29965000D03*
X99800000Y-32505000D03*
%TD*%
D22*
%TO.C,J2*%
X53200000Y-21100000D03*
D23*
X50660000Y-21100000D03*
X48120000Y-21100000D03*
X45580000Y-21100000D03*
%TD*%
D18*
%TO.C,MX5*%
X69050000Y-69050000D03*
D16*
X71590000Y-63970000D03*
X65240000Y-66510000D03*
D17*
X63970000Y-69050000D03*
X74130000Y-69050000D03*
D19*
X61965000Y-66510000D03*
X74892000Y-63970000D03*
%TD*%
D22*
%TO.C,J5*%
X81975000Y-20250000D03*
D23*
X79435000Y-20250000D03*
X76895000Y-20250000D03*
%TD*%
D16*
%TO.C,MX4*%
X52540000Y-63970000D03*
D17*
X44920000Y-69050000D03*
X55080000Y-69050000D03*
D18*
X50000000Y-69050000D03*
D16*
X46190000Y-66510000D03*
D19*
X42915000Y-66510000D03*
X55842000Y-63970000D03*
%TD*%
D20*
%TO.C,H1*%
X99700000Y-98000000D03*
D21*
X99700000Y-98000000D03*
%TD*%
D18*
%TO.C,MX2*%
X69050000Y-50000000D03*
D16*
X65240000Y-47460000D03*
D17*
X74130000Y-50000000D03*
D16*
X71590000Y-44920000D03*
D17*
X63970000Y-50000000D03*
D19*
X61965000Y-47460000D03*
X74892000Y-44920000D03*
%TD*%
D22*
%TO.C,J4*%
X100050000Y-73600000D03*
D23*
X100050000Y-76140000D03*
X100050000Y-78680000D03*
X100050000Y-81220000D03*
X100050000Y-83760000D03*
X100050000Y-86300000D03*
X100050000Y-88840000D03*
%TD*%
D18*
%TO.C,MX1*%
X50000000Y-50000000D03*
D16*
X46190000Y-47460000D03*
D17*
X55080000Y-50000000D03*
X44920000Y-50000000D03*
D16*
X52540000Y-44920000D03*
D19*
X42915000Y-47460000D03*
X55842000Y-44920000D03*
%TD*%
D16*
%TO.C,MX9*%
X90640000Y-83020000D03*
D17*
X93180000Y-88100000D03*
D16*
X84290000Y-85560000D03*
D18*
X88100000Y-88100000D03*
D17*
X83020000Y-88100000D03*
D19*
X81015000Y-85560000D03*
X93942000Y-83020000D03*
%TD*%
D22*
%TO.C,J7*%
X38450000Y-25850000D03*
D23*
X38450000Y-28390000D03*
X38450000Y-30930000D03*
X38450000Y-33470000D03*
X38450000Y-36010000D03*
X38450000Y-38550000D03*
%TD*%
D18*
%TO.C,MX3*%
X88100000Y-50000000D03*
D16*
X84290000Y-47460000D03*
X90640000Y-44920000D03*
D17*
X83020000Y-50000000D03*
X93180000Y-50000000D03*
D19*
X81015000Y-47460000D03*
X93942000Y-44920000D03*
%TD*%
D21*
%TO.C,H4*%
X99700000Y-21050000D03*
D20*
X99700000Y-21050000D03*
%TD*%
D24*
%TO.C,SW1*%
X85600000Y-38450000D03*
D25*
X90600000Y-38450000D03*
X88100000Y-38450000D03*
D26*
X93700000Y-30950000D03*
X82500000Y-30950000D03*
D25*
X90600000Y-23950000D03*
X85600000Y-23950000D03*
%TD*%
D27*
%TO.C,D10*%
X95650000Y-89550000D03*
X95650000Y-86250000D03*
%TD*%
D28*
%TO.C,S7*%
X52550000Y-94350000D03*
D29*
X47450000Y-94350000D03*
X47450000Y-92850000D03*
X52550000Y-92850000D03*
%TD*%
D30*
%TO.C,C14*%
X97537500Y-54950000D03*
X99262500Y-54950000D03*
%TD*%
D31*
%TO.C,D13*%
X71500000Y-96550000D03*
X71500000Y-99750000D03*
X66600000Y-99750000D03*
X66600000Y-96550000D03*
%TD*%
D27*
%TO.C,D9*%
X76800000Y-89600000D03*
X76800000Y-86300000D03*
%TD*%
D32*
%TO.C,D12*%
X41550000Y-61950000D03*
X38350000Y-61950000D03*
X38350000Y-57050000D03*
X41550000Y-57050000D03*
%TD*%
D27*
%TO.C,D2*%
X57800000Y-51350000D03*
X57800000Y-48050000D03*
%TD*%
%TO.C,D7*%
X95750000Y-70850000D03*
X95750000Y-67550000D03*
%TD*%
D33*
%TO.C,R8*%
X73262500Y-25450000D03*
X71437500Y-25450000D03*
%TD*%
D34*
%TO.C,L1*%
X67700000Y-25500000D03*
X68650000Y-25500000D03*
X69600000Y-25500000D03*
X69600000Y-28000000D03*
X68650000Y-28000000D03*
X67700000Y-28000000D03*
%TD*%
D35*
%TO.C,C13*%
X73600000Y-96837500D03*
X73600000Y-98562500D03*
%TD*%
D28*
%TO.C,S5*%
X71600000Y-75300000D03*
D29*
X66500000Y-75300000D03*
X66500000Y-73800000D03*
X71600000Y-73800000D03*
%TD*%
D28*
%TO.C,S4*%
X52550000Y-75300000D03*
D29*
X47450000Y-75300000D03*
X47450000Y-73800000D03*
X52550000Y-73800000D03*
%TD*%
D32*
%TO.C,D14*%
X97450000Y-57050000D03*
X100650000Y-57050000D03*
X100650000Y-61950000D03*
X97450000Y-61950000D03*
%TD*%
D33*
%TO.C,R6*%
X65952500Y-25360000D03*
X64127500Y-25360000D03*
%TD*%
D28*
%TO.C,S3*%
X90650000Y-56250000D03*
D29*
X85550000Y-56250000D03*
X85550000Y-54750000D03*
X90650000Y-54750000D03*
%TD*%
D28*
%TO.C,S2*%
X71600000Y-56250000D03*
D29*
X66500000Y-56250000D03*
X66500000Y-54750000D03*
X71600000Y-54750000D03*
%TD*%
D28*
%TO.C,S9*%
X90650000Y-94350000D03*
D29*
X85550000Y-94350000D03*
X85550000Y-92850000D03*
X90650000Y-92850000D03*
%TD*%
D28*
%TO.C,S1*%
X52550000Y-56250000D03*
D29*
X47450000Y-56250000D03*
X47450000Y-54750000D03*
X52550000Y-54750000D03*
%TD*%
D36*
%TO.C,JP1*%
X72850000Y-32800000D03*
D31*
X72850000Y-31500000D03*
D37*
X72850000Y-30200000D03*
%TD*%
D38*
%TO.C,JP4*%
X60350000Y-22400000D03*
D39*
X59050000Y-22400000D03*
%TD*%
D40*
%TO.C,R7*%
X66000000Y-29912500D03*
X66000000Y-28087500D03*
%TD*%
D41*
%TO.C,C12*%
X40812500Y-63950000D03*
X39087500Y-63950000D03*
%TD*%
D33*
%TO.C,R3*%
X54562500Y-26200000D03*
X52737500Y-26200000D03*
%TD*%
D42*
%TO.C,C11*%
X64475000Y-22237500D03*
X64475000Y-20512500D03*
%TD*%
D27*
%TO.C,D1*%
X89000000Y-30050000D03*
X89000000Y-26750000D03*
%TD*%
D43*
%TO.C,JP2*%
X42000000Y-24650000D03*
D44*
X43300000Y-24650000D03*
%TD*%
D33*
%TO.C,R9*%
X73312500Y-28100000D03*
X71487500Y-28100000D03*
%TD*%
D27*
%TO.C,D3*%
X76800000Y-51450000D03*
X76800000Y-48150000D03*
%TD*%
D28*
%TO.C,S6*%
X90650000Y-75300000D03*
D29*
X85550000Y-75300000D03*
X85550000Y-73800000D03*
X90650000Y-73800000D03*
%TD*%
D28*
%TO.C,S8*%
X71600000Y-94350000D03*
D29*
X66500000Y-94350000D03*
X66500000Y-92850000D03*
X71600000Y-92850000D03*
%TD*%
D27*
%TO.C,D8*%
X57800000Y-89600000D03*
X57800000Y-86300000D03*
%TD*%
%TO.C,D6*%
X76750000Y-70800000D03*
X76750000Y-67500000D03*
%TD*%
D43*
%TO.C,JP3*%
X45650000Y-24650000D03*
D44*
X46950000Y-24650000D03*
%TD*%
D45*
%TO.C,R5*%
X45050000Y-30437500D03*
X45050000Y-32262500D03*
%TD*%
D27*
%TO.C,D4*%
X95800000Y-51350000D03*
X95800000Y-48050000D03*
%TD*%
D31*
%TO.C,D11*%
X66600000Y-23025000D03*
X66600000Y-19825000D03*
X71500000Y-19825000D03*
X71500000Y-23025000D03*
%TD*%
D46*
%TO.C,IC1*%
X55438000Y-29750000D03*
X55438000Y-30250000D03*
X55438000Y-30750000D03*
X55438000Y-31250000D03*
X55438000Y-31750000D03*
X55438000Y-32250000D03*
X55438000Y-32750000D03*
X55438000Y-33250000D03*
X55438000Y-33750000D03*
X55438000Y-34250000D03*
X55438000Y-34750000D03*
X55438000Y-35250000D03*
D47*
X53950000Y-36738000D03*
X53450000Y-36738000D03*
X52950000Y-36738000D03*
X52450000Y-36738000D03*
X51950000Y-36738000D03*
X51450000Y-36738000D03*
X50950000Y-36738000D03*
X50450000Y-36738000D03*
X49950000Y-36738000D03*
X49450000Y-36738000D03*
X48950000Y-36738000D03*
X48450000Y-36738000D03*
D46*
X46962000Y-35250000D03*
X46962000Y-34750000D03*
X46962000Y-34250000D03*
X46962000Y-33750000D03*
X46962000Y-33250000D03*
X46962000Y-32750000D03*
X46962000Y-32250000D03*
X46962000Y-31750000D03*
X46962000Y-31250000D03*
X46962000Y-30750000D03*
X46962000Y-30250000D03*
X46962000Y-29750000D03*
D47*
X48450000Y-28262000D03*
X48950000Y-28262000D03*
X49450000Y-28262000D03*
X49950000Y-28262000D03*
X50450000Y-28262000D03*
X50950000Y-28262000D03*
X51450000Y-28262000D03*
X51950000Y-28262000D03*
X52450000Y-28262000D03*
X52950000Y-28262000D03*
X53450000Y-28262000D03*
X53950000Y-28262000D03*
D48*
X51200000Y-32500000D03*
%TD*%
D27*
%TO.C,D5*%
X57850000Y-70750000D03*
X57850000Y-67450000D03*
%TD*%
M02*
