M48
; DRILL file {KiCad (6.0.0)} date Sun Jan  1 12:45:45 2023
; FORMAT={-:-/ absolute / metric / decimal}
; #@! TF.CreationDate,2023-01-01T12:45:45-08:00
; #@! TF.GenerationSoftware,Kicad,Pcbnew,(6.0.0)
; #@! TF.FileFunction,Plated,1,2,PTH
FMAT,2
METRIC
; #@! TA.AperFunction,Plated,PTH,ViaDrill
T1C0.300
; #@! TA.AperFunction,Plated,PTH,ComponentDrill
T2C1.000
; #@! TA.AperFunction,Plated,PTH,ComponentDrill
T3C2.200
; #@! TA.AperFunction,Plated,PTH,ComponentDrill
T4C2.600
%
G90
G05
T1
X41.17Y-25.67
X42.4Y-33.0
X42.9Y-49.3
X42.9Y-68.5
X42.95Y-87.45
X44.5Y-25.1
X44.9Y-33.6
X48.5Y-29.9
X48.95Y-25.2
X49.9Y-25.2
X50.0Y-31.3
X50.0Y-33.4
X50.9Y-38.1
X51.2Y-32.5
X52.2Y-31.3
X52.2Y-33.4
X52.73Y-29.87
X53.103Y-38.897
X53.5Y-29.5
X53.6Y-54.7
X53.8Y-92.9
X53.9Y-73.8
X53.9Y-77.85
X53.9Y-79.4
X57.0Y-22.3
X57.15Y-77.8
X57.5Y-30.05
X57.55Y-32.1
X57.95Y-33.9
X58.2Y-30.599
X58.3Y-32.6
X58.4Y-34.6
X59.05Y-33.25
X59.1Y-35.15
X59.15Y-94.9
X59.25Y-31.3
X60.6Y-28.9
X60.8Y-91.2
X61.35Y-92.4
X61.95Y-49.65
X61.95Y-68.4
X61.95Y-87.55
X62.0Y-41.05
X62.1Y-39.95
X62.5Y-24.0
X63.02Y-79.3
X63.9Y-91.2
X63.9Y-94.3
X64.1Y-58.65
X64.8Y-75.4
X64.8Y-77.1
X64.95Y-27.05
X65.05Y-58.1
X65.1Y-56.4
X65.23Y-78.1
X66.4Y-26.4
X66.5Y-21.4
X68.2Y-21.9
X70.7Y-32.1
X71.6Y-98.2
X71.83Y-79.27
X72.8Y-92.9
X72.9Y-73.8
X72.9Y-77.75
X72.95Y-80.0
X73.0Y-54.8
X74.4Y-31.6
X75.09Y-79.05
X75.11Y-78.17
X78.2Y-76.0
X78.7Y-77.6
X79.35Y-72.05
X79.91Y-49.47
X80.459Y-56.49
X80.95Y-68.7
X80.95Y-88.25
X83.4Y-77.92
X83.6Y-91.2
X83.7Y-94.3
X84.0Y-75.4
X84.0Y-77.1
X84.05Y-56.55
X84.05Y-58.1
X84.12Y-78.55
X85.3Y-53.5
X86.2Y-30.9
X89.0Y-31.3
X89.15Y-79.3
X90.9Y-89.7
X90.9Y-91.5
X91.6Y-70.0
X91.8Y-73.8
X94.1Y-89.5
X97.7Y-82.5
X97.8Y-79.9
X98.55Y-83.1
X98.7Y-79.9
T2
X38.45Y-25.85
X38.45Y-28.39
X38.45Y-30.93
X38.45Y-33.47
X38.45Y-36.01
X38.45Y-38.55
X45.58Y-21.1
X48.12Y-21.1
X50.66Y-21.1
X53.2Y-21.1
X76.15Y-27.1
X76.15Y-29.64
X76.15Y-32.18
X76.15Y-34.72
X76.895Y-20.25
X79.435Y-20.25
X81.975Y-20.25
X85.6Y-23.95
X85.6Y-38.45
X88.1Y-38.45
X90.6Y-23.95
X90.6Y-38.45
X99.8Y-27.425
X99.8Y-29.965
X99.8Y-32.505
X99.95Y-40.375
X99.95Y-42.915
X99.95Y-45.455
X100.05Y-73.6
X100.05Y-76.14
X100.05Y-78.68
X100.05Y-81.22
X100.05Y-83.76
X100.05Y-86.3
X100.05Y-88.84
T3
X38.45Y-21.05
X38.45Y-98.0
X99.7Y-21.05
X99.7Y-98.0
T4
X82.5Y-30.95
X93.7Y-30.95
T0
M30
